<svg width="485" height="485" viewBox="0 0 485 485" fill="none" xmlns="http://www.w3.org/2000/svg">
<rect width="485" height="485" fill="#1E1E1E"/>
<g clip-path="url(#clip0_0_1)">
<mask id="mask0_0_1" style="mask-type:luminance" maskUnits="userSpaceOnUse" x="-297" y="-717" width="1079" height="1919">
<path d="M-296.668 -716.981H781.668V1201.98H-296.668V-716.981Z" fill="white"/>
</mask>
<g mask="url(#mask0_0_1)">
<path d="M484.822 401.149C484.822 447.458 447.27 485 400.952 485H84.057C37.7384 485 0.189301 447.458 0.189301 401.149V84.3228C0.189301 38.0138 37.7384 0.472127 84.057 0.472127H400.952C447.27 0.472127 484.822 38.0138 484.822 84.3228V401.149Z" fill="black"/>
</g>
<mask id="mask1_0_1" style="mask-type:luminance" maskUnits="userSpaceOnUse" x="0" y="0" width="485" height="484">
<path d="M83.9326 3.36567e-05C37.5801 3.36567e-05 3.05176e-05 37.4698 3.05176e-05 83.6887V399.907C3.05176e-05 446.125 37.5801 483.594 83.9326 483.594H401.066C447.42 483.594 485 446.125 485 399.907V83.6887C485 37.4698 447.42 3.36567e-05 401.066 3.36567e-05H83.9326Z" fill="white"/>
</mask>
<g mask="url(#mask1_0_1)">
<g opacity="0.5">
<mask id="mask2_0_1" style="mask-type:luminance" maskUnits="userSpaceOnUse" x="-174" y="-97" width="843" height="820">
<path d="M-173.274 722.421H668.527V-96.7167H-173.274V722.421Z" fill="white"/>
</mask>
<g mask="url(#mask2_0_1)">
<path fill-rule="evenodd" clip-rule="evenodd" d="M72.8575 602.487C77.9317 566.083 82.9819 529.687 88.058 493.276C90.686 474.404 93.0174 455.471 96.0986 436.685C97.9568 425.375 95.7053 415.098 92.1547 404.791C89.7035 397.664 87.8553 390.234 84.9578 383.347C82.271 376.95 84.3647 374.826 89.7105 373.151C113.111 365.809 136.428 358.171 159.781 350.622C185.719 342.238 211.726 334.098 237.539 325.257C244.097 323.005 246.419 324.696 248.565 331.664C269.931 400.81 291.611 469.838 313.189 538.913C315.765 547.156 317.881 555.603 320.908 563.642C323.571 570.689 321.947 573.302 315.252 574.238C293.305 577.297 271.411 580.848 249.497 584.168C195.194 592.385 140.897 600.581 86.5823 608.771C83.6688 609.219 80.7293 609.559 76.5358 610.121C71.4766 611.255 72.2564 606.808 72.8575 602.487ZM211.676 280.253C205.558 260.443 199.522 240.61 193.286 220.849C191.911 216.486 192.712 214.271 196.879 213.274C211.211 209.842 209.115 205.906 214.446 223.467C219.139 238.93 224.119 254.287 228.84 269.742C231.911 279.789 231.812 279.825 222.527 282.989C220.652 283.627 218.771 284.229 217.832 284.533C213.656 285.343 212.521 282.982 211.676 280.253ZM56.291 205.621C47.6573 177.808 38.775 150.086 29.8099 122.401C28.1474 117.262 28.6676 114.737 33.9515 113.113C72.0367 101.385 110.04 89.3245 148.065 77.37C153.257 75.7378 158.438 74.0617 162.721 72.6775C166.878 71.9119 167.904 74.3476 168.757 77.0701C177.676 105.644 186.407 134.295 195.665 162.728C198.229 170.601 193.917 171.571 189.304 172.998C156.438 183.174 123.553 193.313 90.679 203.457C82.4048 206.013 73.9907 208.14 65.9002 211.291C60.191 213.517 58.0843 211.394 56.291 205.621ZM337.837 618.347C348.03 651.335 358.349 684.281 368.569 717.263C369.041 718.762 368.997 720.46 369.191 722.062C374.599 722.053 380.02 722.048 385.426 722.044C386.053 721.22 386.563 720.223 387.325 719.608C399.221 710.039 399.303 709.949 394.45 694.354C386.423 668.574 378.268 642.839 370.265 617.051C367.381 607.748 367.851 607.252 376.718 605.96C398.865 602.73 640.555 599.036 662.724 595.971C667.188 595.353 668.765 593.08 668.499 588.54C668.028 580.658 667.443 572.774 667.022 564.882C666.491 555.128 665.705 554.286 656.641 555.615C632.284 559.194 388.304 562.741 364.032 566.96C356.849 568.205 354.139 565.838 351.941 558.614C341.573 524.5 330.7 490.585 320.096 456.564C305.957 411.191 291.967 365.768 277.759 320.424C276.115 315.167 277.598 312.936 282.059 311.606C291.069 308.912 300.012 305.946 308.97 303.063C339.891 293.124 607.986 223.797 638.928 213.97C643.819 212.414 646.687 209.973 646.045 203.73C644.138 185.162 643.992 186.636 629.933 190.59C628.981 190.862 606.078 191.212 605.134 191.524C567.162 203.823 313.946 275.399 275.975 287.707C271.772 289.072 268.116 290.309 266.116 283.683C258.246 257.561 250.081 231.556 241.884 205.564C240.579 201.421 241.637 199.59 245.283 198.505C252.388 196.376 259.406 193.858 266.495 191.671C301.99 180.665 601.675 81.1459 637.205 70.3058C640.755 69.2214 641.84 67.0746 641.935 63.3086C642.12 55.5758 640.476 48.1258 639.388 40.6009C637.668 28.7593 635.903 27.7198 625.256 31.026C583.379 44.022 277.263 145.399 235.429 158.539C229.885 160.274 227.103 159.357 225.153 152.787C217.131 125.864 208.6 99.1312 200.312 72.3007C197.109 61.9303 197.219 61.8863 206.541 58.9689C228.769 52.0197 570.109 -46.3301 592.312 -53.3882C600.974 -56.1518 602.333 -60.4435 598.749 -73.9382C596.569 -82.1657 590.947 -78.6955 586.652 -77.4042C563.643 -70.486 221.617 28.1636 198.673 35.3197C189.851 38.0802 189.317 37.6405 186.184 27.6229C173.2 -13.8447 160.126 -55.2792 147.088 -96.7158C136.76 -96.7048 126.432 -96.6948 116.101 -96.6838C120.631 -92.2832 121.86 -85.9066 123.646 -80.0668C135.375 -41.5427 147.64 -3.22041 159.519 35.2518C160.074 37.0578 160.582 38.8908 160.993 40.7508C162.568 47.9139 161.305 50.7384 154.888 53.0282C137.093 59.3647 119.03 64.6958 101.027 70.2508C77.3336 77.5469 53.7609 85.3217 29.9956 92.3119C19.33 95.4462 17.1873 94.2558 13.523 82.842C-1.48886 36.0483 -16.1642 -10.8802 -31.3149 -57.613C-32.1526 -60.1876 -32.8036 -62.8362 -34.1275 -65.1669C-35.5393 -67.6456 -37.4334 -69.3606 -40.2401 -68.567C-43.3104 -67.6955 -44.4256 -65.016 -44.5754 -61.7737C-44.7152 -58.6824 -43.6299 -55.8779 -42.7302 -53.0515C-19.2594 20.8186 3.99668 94.7696 27.8389 168.499C31.9955 181.339 36.2539 194.152 40.072 207.122C43.9271 220.218 42.8997 222.281 30.7794 226.252C9.08982 233.363 -90.5335 258.043 -112.263 265.014C-129.507 270.544 -146.889 275.559 -164.104 281.194C-172.654 283.986 -173.815 286.108 -173.095 295.952C-171.672 315.432 -169.757 317.116 -152.625 311.866C-122.286 302.577 -14.3011 274.642 15.9952 265.189C27.6073 261.561 29.4834 262.643 33.4872 275.057C49.1431 323.623 64.748 372.214 80.1173 420.895C81.5521 425.438 81.8366 429.877 81.1876 434.566C73.5724 489.575 65.7814 544.555 58.2061 599.58C56.9031 609.053 54.1413 611.574 45.7313 609.612C30.8173 606.124 16.0052 602.098 1.20998 598.029C-21.9393 591.655 -45.2574 586.05 -68.4077 579.697C-78.4462 576.941 -80.7067 578.725 -82.5828 589.777C-82.7206 590.582 -82.8564 591.384 -82.9652 592.193C-85.045 607.88 -84.2762 609.246 -70.4505 613.045C-33.2129 623.278 4.22233 632.564 41.4599 642.787C49.831 645.092 51.2877 647.188 50.2174 656.398C47.9259 676.151 44.6819 695.755 42.1379 715.465C41.7604 718.374 40.5623 720.568 38.6512 722.421C44.5511 722.413 50.453 722.409 56.3589 722.403C59.2445 701.124 62.167 679.844 64.9936 658.561C65.5358 654.458 67.2172 652.625 71.1271 652.047C137.551 642.26 203.962 632.325 270.374 622.372C290.079 619.42 309.783 616.47 329.45 613.187C333.888 612.445 336.353 613.545 337.837 618.347Z" fill="#59595C"/>
</g>
</g>
</g>
</g>
<defs>
<clipPath id="clip0_0_1">
<rect width="485" height="485" fill="white"/>
</clipPath>
</defs>
</svg>
