<svg width="485" height="485" viewBox="0 0 485 485" fill="none" xmlns="http://www.w3.org/2000/svg">
<mask id="mask0_2_76" style="mask-type:luminance" maskUnits="userSpaceOnUse" x="-81" y="-385" width="647" height="1254">
<path d="M-81 -385H566V869H-81V-385Z" fill="white"/>
</mask>
<g mask="url(#mask0_2_76)">
<g opacity="0.100006">
<mask id="mask1_2_76" style="mask-type:luminance" maskUnits="userSpaceOnUse" x="186" y="102" width="39" height="42">
<path d="M186.632 143.979H224.385V102.819H186.632V143.979Z" fill="white"/>
</mask>
<g mask="url(#mask1_2_76)">
<path d="M213.913 123.397C213.913 128.459 210.15 132.562 205.508 132.562C200.866 132.562 197.102 128.459 197.102 123.397C197.102 118.336 200.866 114.233 205.508 114.233C210.15 114.233 213.913 118.336 213.913 123.397Z" fill="#FBED1F"/>
<path d="M205.508 108.631C198.039 108.631 191.963 115.255 191.963 123.397C191.963 131.539 198.039 138.164 205.508 138.164C212.976 138.164 219.052 131.539 219.052 123.397C219.052 115.255 212.976 108.631 205.508 108.631ZM205.508 143.977C195.1 143.977 186.632 134.745 186.632 123.397C186.632 112.05 195.1 102.818 205.508 102.818C215.917 102.818 224.385 112.05 224.385 123.397C224.385 134.745 215.917 143.977 205.508 143.977Z" fill="#FBED1F"/>
</g>
</g>
<g opacity="0.100006">
<mask id="mask2_2_76" style="mask-type:luminance" maskUnits="userSpaceOnUse" x="133" y="341" width="39" height="42">
<path d="M133.579 382.429H171.331V341.27H133.579V382.429Z" fill="white"/>
</mask>
<g mask="url(#mask2_2_76)">
<path d="M160.862 361.85C160.862 366.911 157.098 371.013 152.457 371.013C147.813 371.013 144.05 366.911 144.05 361.85C144.05 356.789 147.813 352.686 152.457 352.686C157.098 352.686 160.862 356.789 160.862 361.85Z" fill="#FBED1F"/>
<path d="M152.456 347.083C144.988 347.083 138.911 353.707 138.911 361.85C138.911 369.992 144.988 376.616 152.456 376.616C159.924 376.616 166 369.992 166 361.85C166 353.707 159.924 347.083 152.456 347.083ZM152.456 382.429C142.047 382.429 133.579 373.198 133.579 361.85C133.579 350.502 142.047 341.27 152.456 341.27C162.864 341.27 171.331 350.502 171.331 361.85C171.331 373.198 162.864 382.429 152.456 382.429Z" fill="#FBED1F"/>
</g>
</g>
<g opacity="0.100006">
<mask id="mask3_2_76" style="mask-type:luminance" maskUnits="userSpaceOnUse" x="242" y="294" width="39" height="42">
<path d="M242.5 335.341H280.252V294.182H242.5V335.341Z" fill="white"/>
</mask>
<g mask="url(#mask3_2_76)">
<path d="M269.782 314.763C269.782 319.822 266.019 323.926 261.376 323.926C256.733 323.926 252.969 319.822 252.969 314.763C252.969 309.7 256.733 305.599 261.376 305.599C266.019 305.599 269.782 309.7 269.782 314.763Z" fill="#FBED1F"/>
<path d="M261.376 299.995C253.908 299.995 247.831 306.619 247.831 314.763C247.831 322.905 253.908 329.528 261.376 329.528C268.844 329.528 274.92 322.905 274.92 314.763C274.92 306.619 268.844 299.995 261.376 299.995ZM261.376 335.341C250.968 335.341 242.5 326.11 242.5 314.763C242.5 303.413 250.968 294.182 261.376 294.182C271.785 294.182 280.252 303.413 280.252 314.763C280.252 326.11 271.785 335.341 261.376 335.341Z" fill="#FBED1F"/>
</g>
</g>
<g opacity="0.100006">
<mask id="mask4_2_76" style="mask-type:luminance" maskUnits="userSpaceOnUse" x="280" y="158" width="39" height="42">
<path d="M280.252 199.769H318.005V158.609H280.252V199.769Z" fill="white"/>
</mask>
<g mask="url(#mask4_2_76)">
<path d="M307.534 179.189C307.534 184.25 303.771 188.353 299.129 188.353C294.486 188.353 290.723 184.25 290.723 179.189C290.723 174.128 294.486 170.025 299.129 170.025C303.771 170.025 307.534 174.128 307.534 179.189Z" fill="#FBED1F"/>
<path d="M299.129 164.422C291.66 164.422 285.583 171.047 285.583 179.189C285.583 187.331 291.66 193.955 299.129 193.955C306.596 193.955 312.673 187.331 312.673 179.189C312.673 171.047 306.596 164.422 299.129 164.422ZM299.129 199.768C288.72 199.768 280.251 190.537 280.251 179.189C280.251 167.841 288.72 158.608 299.129 158.608C309.536 158.608 318.005 167.841 318.005 179.189C318.005 190.537 309.536 199.768 299.129 199.768Z" fill="#FBED1F"/>
</g>
</g>
<path d="M296.904 169.943C296.904 167.833 299.886 167.705 299.886 167.705H300.001C301.047 165.765 302.789 163.95 305.886 163.95C308.44 163.95 310.375 165.639 311.187 168.043H311.265C311.846 166.904 312.582 166.018 313.354 165.385C314.476 164.457 315.715 163.95 317.496 163.95C319.972 163.95 323.649 165.722 323.649 172.811V184.837H320.321V173.276C320.321 169.351 319.005 166.989 316.257 166.989C314.322 166.989 312.813 168.55 312.233 170.364C312.077 170.871 311.962 171.546 311.962 172.221V184.837H308.633V172.601C308.633 169.351 307.318 166.989 304.725 166.989C302.594 166.989 301.047 168.845 300.505 170.702C300.311 171.25 300.235 171.883 300.235 172.516V184.837H296.904V169.943Z" fill="#FBED1F"/>
<path d="M352.354 158.676C352.393 159.899 351.579 160.954 350.226 160.954C348.948 160.954 348.135 159.899 348.135 158.676C348.135 157.368 349.025 156.355 350.303 156.355C351.542 156.355 352.354 157.368 352.354 158.676ZM347.284 189.183C348.214 188.001 348.561 186.399 348.561 181.504V164.414H351.967V182.938C351.967 186.905 351.609 190.062 349.722 191.335C347.908 192.56 345.814 191.94 343.961 190.742C343.961 190.742 346.472 190.154 347.284 189.183Z" fill="#FBED1F"/>
<path d="M335.54 167.087C331.845 167.087 328.839 170.366 328.839 174.394C328.839 178.422 331.845 181.7 335.54 181.7C339.235 181.7 342.241 178.422 342.241 174.394C342.241 170.366 339.235 167.087 335.54 167.087ZM335.54 184.825C330.264 184.825 325.971 180.145 325.971 174.394C325.971 168.642 330.264 163.962 335.54 163.962C340.815 163.962 345.109 168.642 345.109 174.394C345.109 180.145 340.815 184.825 335.54 184.825Z" fill="#FBED1F"/>
<path d="M191.899 198.676H129.049V219.227H150.802V310.02H173.202V219.227H191.899V198.676Z" fill="#FBED1F"/>
<path d="M223.457 265.384H215.817L219.636 240.752L223.457 265.384ZM301.172 198.676L289.835 227.518L278.416 198.676H253.738L277.673 254.053L254.142 309.111L233.886 198.676H205.581L184.863 310.02H208.081L212.374 285.418H226.773L230.907 310.02H253.755H254.306H277.837L289.836 280.081L301.749 310.02H325.839L301.922 254.053L325.853 198.676H301.172Z" fill="#FBED1F"/>
<path d="M329.957 310.02H352.356V198.676H329.957V310.02Z" fill="#FBED1F"/>
</g>
</svg>
