<svg width="180" height="249" viewBox="0 0 180 249" fill="none" xmlns="http://www.w3.org/2000/svg">
<mask id="mask0_7_120" style="mask-type:luminance" maskUnits="userSpaceOnUse" x="-514" y="-209" width="795" height="1124">
<path d="M-513.346 -208.039H280.361V914.481H-513.346V-208.039Z" fill="white"/>
</mask>
<g mask="url(#mask0_7_120)">
<path d="M179.321 101.051C179.765 97.428 179.997 93.7413 179.997 89.9987C179.997 40.2947 139.704 -7.41744e-06 89.9987 -7.41744e-06C40.2947 -7.41744e-06 0 40.2947 0 89.9987C0 93.7413 0.233338 97.428 0.676005 101.051L0.863993 102.467C4.35599 127.664 18.276 149.528 38.132 163.555L90.192 248.888L142.149 163.356C161.852 149.324 175.655 127.549 179.133 102.475L179.321 101.051Z" fill="#5ABB69"/>
<path d="M168.91 99.3406C169.302 96.1406 169.507 92.8833 169.507 89.5766C169.507 45.6659 133.91 10.0699 89.999 10.0699C46.0883 10.0699 10.491 45.6659 10.491 89.5766C10.491 92.8833 10.6963 96.1406 11.0883 99.3406L11.2536 100.591C14.339 122.853 26.6363 142.167 44.1776 154.559L90.1696 229.945L136.07 154.383C153.476 141.986 165.671 122.751 168.743 100.598L168.91 99.3406Z" fill="black"/>
<path d="M115.029 53.9698C115.029 52.9725 116.566 52.9111 116.566 52.9111H116.626C117.165 51.9938 118.063 51.1351 119.659 51.1351C120.977 51.1351 121.974 51.9338 122.393 53.0711H122.433C122.733 52.5325 123.113 52.1138 123.51 51.8138C124.089 51.3751 124.727 51.1351 125.646 51.1351C126.923 51.1351 128.818 51.9738 128.818 55.3271V61.0138H127.102V55.5458C127.102 53.6898 126.423 52.5725 125.007 52.5725C124.009 52.5725 123.231 53.3111 122.933 54.1685C122.851 54.4085 122.793 54.7285 122.793 55.0471V61.0138H121.077V55.2271C121.077 53.6898 120.398 52.5725 119.061 52.5725C117.962 52.5725 117.165 53.4511 116.886 54.3285C116.786 54.5885 116.746 54.8871 116.746 55.1871V61.0138H115.029V53.9698Z" fill="#5ABB69"/>
<path d="M143.619 48.6413C143.639 49.22 143.22 49.7187 142.521 49.7187C141.863 49.7187 141.444 49.22 141.444 48.6413C141.444 48.0227 141.903 47.544 142.561 47.544C143.2 47.544 143.619 48.0227 143.619 48.6413ZM141.004 63.0693C141.484 62.5107 141.663 61.752 141.663 59.4373V51.3547H143.42V60.116C143.42 61.992 143.235 63.4853 142.261 64.0867C141.327 64.6667 140.247 64.3733 139.292 63.8067C139.292 63.8067 140.585 63.528 141.004 63.0693Z" fill="#5ABB69"/>
<path d="M134.949 52.6193C133.044 52.6193 131.495 54.17 131.495 56.0753C131.495 57.9793 133.044 59.53 134.949 59.53C136.855 59.53 138.404 57.9793 138.404 56.0753C138.404 54.17 136.855 52.6193 134.949 52.6193ZM134.949 61.0087C132.229 61.0087 130.016 58.7953 130.016 56.0753C130.016 53.354 132.229 51.1407 134.949 51.1407C137.669 51.1407 139.883 53.354 139.883 56.0753C139.883 58.7953 137.669 61.0087 134.949 61.0087Z" fill="#5ABB69"/>
<path d="M60.887 67.559H28.4817V77.2777H39.6977V120.218H51.247V77.2777H60.887V67.559Z" fill="#5ABB69"/>
<path d="M77.1586 99.1072H73.2199L75.1879 87.4579L77.1586 99.1072ZM117.229 67.5592L111.384 81.1992L105.496 67.5592H92.7719L105.112 93.7486L92.9799 119.787L82.5359 67.5592H67.9412L57.2599 120.217H69.2306L71.4439 108.582H78.8679L80.9999 120.217H92.7799H93.0639H105.197L111.384 106.058L117.527 120.217H129.947L117.616 93.7486L129.955 67.5592H117.229Z" fill="#5ABB69"/>
<path d="M132.07 120.217H143.619V67.558H132.07V120.217Z" fill="#5ABB69"/>
</g>
</svg>
