<svg width="180" height="249" viewBox="0 0 180 249" fill="none" xmlns="http://www.w3.org/2000/svg">
<mask id="mask0_7_120" style="mask-type:luminance" maskUnits="userSpaceOnUse" x="-151" y="-209" width="795" height="1124">
<path d="M-150.178 -208.039H643.529V914.481H-150.178V-208.039Z" fill="white"/>
</mask>
<g mask="url(#mask0_7_120)">
<path d="M179.321 101.051C179.765 97.428 179.997 93.7413 179.997 89.9987C179.997 40.2947 139.704 -7.41744e-06 89.9987 -7.41744e-06C40.2947 -7.41744e-06 0 40.2947 0 89.9987C0 93.7413 0.233338 97.428 0.676005 101.051L0.863993 102.467C4.35599 127.664 18.276 149.528 38.132 163.555L90.192 248.888L142.149 163.356C161.852 149.324 175.655 127.549 179.133 102.475L179.321 101.051Z" fill="#5ABB69"/>
<path d="M168.909 99.3406C169.301 96.1406 169.507 92.8833 169.507 89.5766C169.507 45.6659 133.909 10.0699 89.9988 10.0699C46.0881 10.0699 10.4908 45.6659 10.4908 89.5766C10.4908 92.8833 10.6961 96.1406 11.0881 99.3406L11.2535 100.591C14.3388 122.853 26.6361 142.167 44.1774 154.559L90.1694 229.945L136.069 154.383C153.476 141.986 165.671 122.751 168.743 100.598L168.909 99.3406Z" fill="black"/>
<path d="M55.6353 36.6432V41.7152H57.61C59.0327 41.7152 59.9833 41.6206 60.4633 41.4339C60.942 41.2472 61.318 40.9539 61.5913 40.5566C61.862 40.1579 61.9993 39.6952 61.9993 39.1659C61.9993 38.5166 61.8073 37.9792 61.426 37.5566C61.0433 37.1352 60.5593 36.8699 59.9753 36.7646C59.5433 36.6832 58.6793 36.6432 57.378 36.6432H55.6353ZM52.026 51.4926V33.6206H57.8167C60.0113 33.6206 61.442 33.7099 62.1087 33.8872C63.1327 34.1552 63.99 34.7392 64.6807 35.6366C65.3727 36.5352 65.7167 37.6952 65.7167 39.1179C65.7167 40.2152 65.518 41.1379 65.1193 41.8846C64.722 42.6339 64.2153 43.2192 63.602 43.6472C62.9873 44.0726 62.3647 44.3552 61.73 44.4939C60.87 44.6659 59.622 44.7499 57.9873 44.7499H55.6353V51.4926H52.026Z" fill="#5ABB69"/>
<path d="M75.7992 45.2749C75.3605 45.4202 74.6659 45.5962 73.7139 45.7975C72.7645 46.0015 72.1419 46.2002 71.8499 46.3962C71.4019 46.7135 71.1792 47.1162 71.1792 47.6029C71.1792 48.0829 71.3579 48.4962 71.7152 48.8469C72.0725 49.1962 72.5285 49.3695 73.0805 49.3695C73.6979 49.3695 74.2872 49.1682 74.8485 48.7602C75.2632 48.4522 75.5352 48.0735 75.6659 47.6269C75.7539 47.3349 75.7992 46.7775 75.7992 45.9575V45.2749ZM71.2152 42.4949L68.1072 41.9349C68.4565 40.6829 69.0579 39.7549 69.9112 39.1535C70.7645 38.5535 72.0325 38.2522 73.7139 38.2522C75.2432 38.2522 76.3805 38.4335 77.1285 38.7935C77.8765 39.1562 78.4019 39.6149 78.7072 40.1722C79.0112 40.7295 79.1645 41.7509 79.1645 43.2375L79.1272 47.2375C79.1272 48.3749 79.1819 49.2149 79.2925 49.7549C79.4019 50.2949 79.6072 50.8749 79.9085 51.4922H76.5192C76.4299 51.2655 76.3192 50.9269 76.1899 50.4802C76.1325 50.2775 76.0925 50.1429 76.0672 50.0789C75.4832 50.6469 74.8565 51.0735 74.1912 51.3575C73.5245 51.6415 72.8125 51.7855 72.0565 51.7855C70.7245 51.7855 69.6739 51.4229 68.9059 50.6989C68.1365 49.9762 67.7539 49.0615 67.7539 47.9562C67.7539 47.2255 67.9285 46.5722 68.2779 46.0002C68.6272 45.4255 69.1165 44.9882 69.7472 44.6829C70.3765 44.3789 71.2845 44.1109 72.4712 43.8842C74.0725 43.5842 75.1819 43.3029 75.7992 43.0442V42.7029C75.7992 42.0442 75.6365 41.5749 75.3112 41.2935C74.9872 41.0135 74.3739 40.8722 73.4712 40.8722C72.8619 40.8722 72.3859 40.9935 72.0445 41.2335C71.7032 41.4722 71.4272 41.8935 71.2152 42.4949Z" fill="#5ABB69"/>
<path d="M80.9199 38.544H84.5652L87.6612 47.7374L90.6852 38.544H94.2332L89.6612 51.004L88.8439 53.26C88.5439 54.0147 88.2572 54.592 87.9852 54.992C87.7119 55.3894 87.3999 55.712 87.0452 55.96C86.6919 56.208 86.2585 56.4 85.7425 56.5387C85.2252 56.676 84.6425 56.7454 83.9919 56.7454C83.3345 56.7454 82.6879 56.676 82.0545 56.5387L81.7492 53.8574C82.2852 53.9627 82.7692 54.0147 83.1999 54.0147C83.9959 54.0147 84.5852 53.7814 84.9679 53.3147C85.3492 52.8467 85.6425 52.2507 85.8452 51.5294L80.9199 38.544Z" fill="#5ABB69"/>
<path d="M106.619 44.7379C106.619 46.0792 106.831 47.0712 107.252 47.7125C107.845 48.6232 108.633 49.0779 109.617 49.0779C110.373 49.0779 111.017 48.7539 111.549 48.1099C112.081 47.4632 112.348 46.4445 112.348 45.0539C112.348 43.5765 112.08 42.5099 111.544 41.8539C111.007 41.2005 110.32 40.8725 109.484 40.8725C108.663 40.8725 107.98 41.1925 107.435 41.8312C106.891 42.4685 106.619 43.4365 106.619 44.7379ZM103.217 51.4912V33.6205H106.643V40.0565C107.7 38.8539 108.951 38.2525 110.397 38.2525C111.975 38.2525 113.279 38.8232 114.311 39.9645C115.343 41.1072 115.859 42.7472 115.859 44.8845C115.859 47.0952 115.333 48.7979 114.281 49.9925C113.228 51.1859 111.949 51.7845 110.447 51.7845C109.707 51.7845 108.977 51.5992 108.259 51.2299C107.539 50.8605 106.919 50.3125 106.399 49.5899V51.4912H103.217Z" fill="#5ABB69"/>
<path d="M116.993 38.544H120.639L123.735 47.7374L126.759 38.544H130.307L125.735 51.004L124.917 53.26C124.617 54.0147 124.331 54.592 124.059 54.992C123.785 55.3894 123.473 55.712 123.119 55.96C122.765 56.208 122.332 56.4 121.816 56.5387C121.299 56.676 120.716 56.7454 120.065 56.7454C119.408 56.7454 118.761 56.676 118.128 56.5387L117.823 53.8574C118.359 53.9627 118.843 54.0147 119.273 54.0147C120.069 54.0147 120.659 53.7814 121.041 53.3147C121.423 52.8467 121.716 52.2507 121.919 51.5294L116.993 38.544Z" fill="#5ABB69"/>
<path d="M58.2371 102.87L63.1251 104.418C62.3757 107.144 61.1304 109.17 59.3877 110.491C57.6437 111.814 55.4317 112.476 52.7531 112.476C49.4371 112.476 46.7117 111.342 44.5771 109.076C42.4424 106.812 41.3744 103.715 41.3744 99.7843C41.3744 95.6297 42.4477 92.403 44.5931 90.103C46.7397 87.803 49.5624 86.6537 53.0597 86.6537C56.1131 86.6537 58.5944 87.5563 60.5024 89.3617C61.6384 90.4283 62.4891 91.9617 63.0571 93.959L58.0664 95.1523C57.7717 93.8577 57.1557 92.8363 56.2197 92.0857C55.2824 91.3377 54.1437 90.963 52.8037 90.963C50.9531 90.963 49.4504 91.627 48.2984 92.955C47.1464 94.2857 46.5691 96.4363 46.5691 99.411C46.5691 102.568 47.1371 104.816 48.2731 106.155C49.4091 107.496 50.8851 108.167 52.7024 108.167C54.0424 108.167 55.1944 107.74 56.1584 106.888C57.1251 106.036 57.8171 104.698 58.2371 102.87Z" fill="#5ABB69"/>
<path d="M80.686 102.171L77.2447 92.9058L73.874 102.171H80.686ZM89.9687 112.05H84.4847L82.3033 106.378H72.3233L70.262 112.05H64.914L74.6393 87.0805H79.97L89.9687 112.05Z" fill="#5ABB69"/>
<path d="M97.7023 97.6395H101.433C103.852 97.6395 105.362 97.5382 105.964 97.3328C106.565 97.1288 107.037 96.7768 107.378 96.2768C107.718 95.7768 107.889 95.1515 107.889 94.4035C107.889 93.5622 107.665 92.8835 107.216 92.3688C106.766 91.8515 106.134 91.5248 105.317 91.3875C104.908 91.3315 103.681 91.3035 101.638 91.3035H97.7023V97.6395ZM92.6609 112.049V87.0795H103.273C105.941 87.0795 107.88 87.3048 109.089 87.7528C110.3 88.2008 111.268 88.9982 111.993 90.1462C112.72 91.2928 113.084 92.6035 113.084 94.0808C113.084 95.9542 112.533 97.5008 111.43 98.7222C110.329 99.9422 108.684 100.711 106.492 101.029C107.581 101.665 108.481 102.363 109.19 103.123C109.901 103.885 110.857 105.237 112.061 107.177L115.11 112.049H109.081L105.436 106.617C104.141 104.674 103.256 103.449 102.778 102.945C102.302 102.441 101.796 102.093 101.262 101.906C100.729 101.718 99.8823 101.626 98.7249 101.626H97.7023V112.049H92.6609Z" fill="#5ABB69"/>
<path d="M122.86 91.3036V107.844H126.624C128.032 107.844 129.048 107.764 129.672 107.604C130.491 107.4 131.169 107.052 131.709 106.565C132.248 106.078 132.688 105.273 133.028 104.154C133.369 103.036 133.539 101.512 133.539 99.5823C133.539 97.6503 133.369 96.169 133.028 95.137C132.688 94.1023 132.211 93.2956 131.597 92.7183C130.984 92.1383 130.207 91.745 129.264 91.5423C128.56 91.3836 127.18 91.3036 125.125 91.3036H122.86ZM117.819 87.081H127.033C129.111 87.081 130.695 87.2383 131.785 87.557C133.251 87.9876 134.505 88.7556 135.549 89.8543C136.593 90.957 137.388 92.3063 137.933 93.901C138.479 95.497 138.752 97.4623 138.752 99.8023C138.752 101.858 138.496 103.629 137.984 105.116C137.36 106.933 136.469 108.404 135.311 109.529C134.436 110.381 133.256 111.045 131.768 111.521C130.655 111.873 129.168 112.049 127.305 112.049H117.819V87.081Z" fill="#5ABB69"/>
<path d="M44.7565 64.9013C38.6685 64.9013 33.7139 69.856 33.7139 75.944V122.488C33.7139 128.576 38.6685 133.531 44.7565 133.531H135.241C141.33 133.531 146.285 128.576 146.285 122.488V75.944C146.285 69.856 141.33 64.9013 135.241 64.9013H44.7565ZM135.241 136.687H44.7565C36.9272 136.687 30.5592 130.317 30.5592 122.488V75.944C30.5592 68.1146 36.9272 61.7466 44.7565 61.7466H135.241C143.07 61.7466 149.439 68.1146 149.439 75.944V122.488C149.439 130.317 143.07 136.687 135.241 136.687Z" fill="#5ABB69"/>
</g>
</svg>
