<svg width="180" height="249" viewBox="0 0 180 249" fill="none" xmlns="http://www.w3.org/2000/svg">
<mask id="mask0_7_120" style="mask-type:luminance" maskUnits="userSpaceOnUse" x="-514" y="-588" width="795" height="1124">
<path d="M-513.346 -587.418H280.361V535.102H-513.346V-587.418Z" fill="white"/>
</mask>
<g mask="url(#mask0_7_120)">
<path d="M179.321 101.051C179.765 97.428 179.997 93.7413 179.997 89.9987C179.997 40.2947 139.704 -7.41744e-06 89.9987 -7.41744e-06C40.2947 -7.41744e-06 0 40.2947 0 89.9987C0 93.7413 0.233338 97.428 0.676005 101.051L0.863993 102.467C4.35599 127.664 18.276 149.528 38.132 163.555L90.192 248.888L142.149 163.356C161.852 149.324 175.655 127.549 179.133 102.475L179.321 101.051Z" fill="#929497"/>
<path d="M168.91 99.3406C169.302 96.1406 169.507 92.8833 169.507 89.5766C169.507 45.666 133.91 10.07 89.999 10.07C46.0883 10.07 10.491 45.666 10.491 89.5766C10.491 92.8833 10.6963 96.1406 11.0883 99.3406L11.2536 100.591C14.339 122.853 26.6363 142.167 44.1776 154.558L90.1696 229.945L136.07 154.383C153.476 141.986 165.671 122.751 168.743 100.598L168.91 99.3406Z" fill="black"/>
<path d="M116.368 53.9699C116.368 52.9712 117.906 52.9112 117.906 52.9112H117.966C118.504 51.9939 119.403 51.1352 120.999 51.1352C122.316 51.1352 123.314 51.9339 123.732 53.0712H123.772C124.072 52.5325 124.452 52.1139 124.85 51.8139C125.428 51.3752 126.067 51.1352 126.986 51.1352C128.263 51.1352 130.158 51.9739 130.158 55.3259V61.0139H128.442V55.5459C128.442 53.6899 127.763 52.5725 126.347 52.5725C125.348 52.5725 124.571 53.3112 124.272 54.1685C124.191 54.4085 124.132 54.7285 124.132 55.0472V61.0139H122.415V55.2272C122.415 53.6899 121.738 52.5725 120.4 52.5725C119.302 52.5725 118.504 53.4499 118.224 54.3285C118.126 54.5885 118.086 54.8872 118.086 55.1872V61.0139H116.368V53.9699Z" fill="#929497"/>
<path d="M144.959 48.6415C144.979 49.2202 144.56 49.7188 143.861 49.7188C143.203 49.7188 142.784 49.2202 142.784 48.6415C142.784 48.0228 143.243 47.5442 143.901 47.5442C144.54 47.5442 144.959 48.0228 144.959 48.6415ZM142.344 63.0695C142.824 62.5108 143.003 61.7522 143.003 59.4375V51.3548H144.76V60.1162C144.76 61.9922 144.575 63.4855 143.601 64.0868C142.667 64.6668 141.587 64.3735 140.632 63.8068C140.632 63.8068 141.925 63.5282 142.344 63.0695Z" fill="#929497"/>
<path d="M136.289 52.6193C134.384 52.6193 132.834 54.17 132.834 56.0753C132.834 57.9793 134.384 59.53 136.289 59.53C138.194 59.53 139.744 57.9793 139.744 56.0753C139.744 54.17 138.194 52.6193 136.289 52.6193ZM136.289 61.0087C133.569 61.0087 131.356 58.7953 131.356 56.0753C131.356 53.354 133.569 51.1407 136.289 51.1407C139.009 51.1407 141.222 53.354 141.222 56.0753C141.222 58.7953 139.009 61.0087 136.289 61.0087Z" fill="#929497"/>
<path d="M62.2269 67.5589H29.8215V77.2775H41.0375V120.218H52.5869V77.2775H62.2269V67.5589Z" fill="#929497"/>
<path d="M78.4985 99.1073H74.5599L76.5279 87.458L78.4985 99.1073ZM118.569 67.5593L112.724 81.1993L106.836 67.5593H94.1118L106.452 93.7487L94.3199 119.787L83.8759 67.5593H69.2812L58.5999 120.217H70.5705L72.7839 108.582H80.2092L82.3399 120.217H94.1199H94.4039H106.537L112.724 106.058L118.867 120.217H131.287L118.956 93.7487L131.295 67.5593H118.569Z" fill="#929497"/>
<path d="M133.41 120.217H144.959V67.5581H133.41V120.217Z" fill="#929497"/>
</g>
</svg>
