<?xml version="1.0" encoding="UTF-8" standalone="no"?>
<svg
   version="1.1"
   width="1080"
   height="1920"
   viewBox="0 0 1080 1920"
   id="svg37"
   xmlns="http://www.w3.org/2000/svg"
   xmlns:svg="http://www.w3.org/2000/svg">
  <defs
     id="defs12">
    <clipPath
       id="clip_0">
      <path
         transform="matrix(1,0,0,-1,0,1920)"
         d="M 0,1920 H 1080 V 0 H 0 Z"
         id="path1" />
    </clipPath>
    <clipPath
       id="clip_1">
      <path
         transform="matrix(1,0,0,-1,0,1920)"
         d="m 381.188,1202.631 c -46.424,0 -84.062,-37.49 -84.062,-83.734 V 802.508 c 0,-46.243 37.638,-83.733 84.062,-83.733 h 317.623 c 46.425,0 84.063,37.49 84.063,83.733 v 316.389 c 0,46.244 -37.638,83.734 -84.063,83.734 z"
         id="path2" />
    </clipPath>
    <clipPath
       id="clip_2">
      <path
         transform="matrix(1,0,0,-1,0,1920)"
         d="M 123.585,479.819 H 966.684 V 1299.4 H 123.585 Z"
         id="path3" />
    </clipPath>
    <clipPath
       id="clip_3">
      <path
         transform="matrix(1,0,0,-1,0,1920)"
         d="M 0,1920 H 1080 V 0 H 0 Z"
         id="path4" />
    </clipPath>
    <clipPath
       id="clip_4">
      <path
         transform="matrix(1,0,0,-1,0,1920)"
         d="m 446.743,1110.08 h 63.018 v 63.02 h -63.018 z"
         id="path5" />
    </clipPath>
    <clipPath
       id="clip_5">
      <path
         transform="matrix(1,0,0,-1,0,1920)"
         d="m 358.184,744.989 h 63.018 v 63.018 h -63.018 z"
         id="path6" />
    </clipPath>
    <clipPath
       id="clip_6">
      <path
         transform="matrix(1,0,0,-1,0,1920)"
         d="m 540,817.085 h 63.017 v 63.019 H 540 Z"
         id="path7" />
    </clipPath>
    <clipPath
       id="clip_7">
      <path
         transform="matrix(1,0,0,-1,0,1920)"
         d="m 603.017,1024.66 h 63.019 v 63.02 h -63.019 z"
         id="path8" />
    </clipPath>
    <clipPath
       id="clip_8">
      <path
         transform="matrix(1,0,0,-1,0,1920)"
         d="m 2060.522,356.563 h -682.454 v 1209.054 h 682.454 z"
         id="path9" />
    </clipPath>
    <clipPath
       id="clip_9">
      <path
         transform="matrix(1,0,0,-1,0,1920)"
         d="M 854.043,171.832 H 2440.19 V 1765.13 H 854.043 Z"
         id="path10" />
    </clipPath>
    <clipPath
       id="clip_10">
      <path
         transform="matrix(1,0,0,-1,0,1920)"
         d="M 854.043,171.832 H 2440.19 V 1765.13 H 854.043 Z"
         id="path11" />
    </clipPath>
    <clipPath
       id="clip_11">
      <path
         transform="matrix(1,0,0,-1,0,1920)"
         d="m 2431.434,171.832 8.757,1584.586 -1577.392,8.717 -8.756,-1584.585 z"
         id="path12" />
    </clipPath>
  </defs>
  <g
     id="g62"
     transform="translate(-300,-717.5)">
    <g
       clip-path="url(#clip_0)"
       id="g38"
       style="display:none">
      <path
         transform="matrix(1,0,0,-1,782.6956,1118.7355)"
         d="m 0,0 c 0,-46.334 -37.61,-83.896 -83.999,-83.896 h -317.384 c -46.39,0 -83.997,37.562 -83.997,83.896 v 316.998 c 0,46.334 37.607,83.896 83.997,83.896 H -83.999 C -37.61,400.894 0,363.332 0,316.998 Z"
         id="path37" />
    </g>
    <g
       clip-path="url(#clip_1)"
       id="g41"
       style="display:none">
      <g
         opacity="0.5"
         id="g40">
        <g
           clip-path="url(#clip_2)"
           id="g39">
          <path
             transform="matrix(1,0,0,-1,370.0958,1320.1819)"
             d="m 0,0 c 5.082,36.423 10.14,72.839 15.224,109.27 2.632,18.882 4.967,37.825 8.053,56.621 1.861,11.317 -0.394,21.599 -3.95,31.912 -2.455,7.131 -4.306,14.565 -7.208,21.455 -2.691,6.401 -0.594,8.526 4.76,10.202 23.437,7.346 46.79,14.988 70.179,22.541 25.978,8.389 52.025,16.533 77.877,25.379 6.569,2.253 8.894,0.561 11.043,-6.411 21.399,-69.183 43.113,-138.248 64.724,-207.361 2.58,-8.247 4.699,-16.699 7.731,-24.742 2.667,-7.051 1.041,-9.665 -5.665,-10.602 C 220.787,25.203 198.86,21.65 176.912,18.329 122.525,10.107 68.144,1.907 13.746,-6.288 10.828,-6.736 7.884,-7.076 3.684,-7.638 -1.383,-8.773 -0.602,-4.324 0,0 m 139.033,322.408 c -6.128,19.821 -12.173,39.665 -18.419,59.436 -1.377,4.366 -0.575,6.582 3.599,7.579 14.354,3.434 12.255,7.372 17.594,-10.198 4.7,-15.471 9.688,-30.837 14.416,-46.3 3.076,-10.053 2.977,-10.089 -6.323,-13.254 -1.878,-0.639 -3.761,-1.241 -4.702,-1.545 -4.182,-0.811 -5.319,1.552 -6.165,4.282 m -155.625,74.673 c -8.647,27.828 -17.543,55.565 -26.522,83.265 -1.665,5.141 -1.144,7.668 4.148,9.293 38.144,11.734 76.206,23.801 114.289,35.762 5.201,1.633 10.39,3.31 14.679,4.695 4.164,0.766 5.191,-1.671 6.045,-4.395 8.933,-28.589 17.678,-57.256 26.95,-85.704 2.568,-7.878 -1.751,-8.848 -6.371,-10.276 C 83.709,419.54 50.774,409.395 17.849,399.246 9.562,396.688 1.135,394.56 -6.968,391.408 c -5.718,-2.228 -7.828,-0.104 -9.624,5.673 m 281.98,-412.95 c 10.209,-33.006 20.544,-65.97 30.78,-98.969 0.472,-1.5 0.428,-3.199 0.623,-4.802 5.416,0.009 10.845,0.014 16.26,0.018 0.628,0.824 1.138,1.822 1.902,2.437 11.914,9.575 11.996,9.665 7.136,25.268 -8.04,25.794 -16.207,51.543 -24.223,77.345 -2.888,9.308 -2.418,9.804 6.463,11.097 22.181,3.232 264.244,6.928 286.447,9.994 4.471,0.619 6.051,2.893 5.784,7.435 -0.472,7.887 -1.057,15.775 -1.479,23.671 -0.532,9.759 -1.319,10.602 -10.397,9.272 -24.395,-3.581 -268.751,-7.13 -293.06,-11.351 -7.194,-1.246 -9.909,1.123 -12.11,8.351 -10.384,34.132 -21.274,68.065 -31.894,102.105 -14.161,45.397 -28.173,90.845 -42.402,136.213 -1.647,5.26 -0.162,7.492 4.306,8.823 9.024,2.696 17.981,5.663 26.953,8.548 30.968,9.944 299.477,79.309 330.467,89.141 4.898,1.557 7.771,3.999 7.128,10.246 -1.91,18.578 -2.057,17.103 -16.137,13.147 -0.954,-0.272 -23.892,-0.623 -24.838,-0.935 -38.03,-12.305 -291.637,-83.92 -329.666,-96.235 -4.21,-1.366 -7.871,-2.603 -9.874,4.026 -7.883,26.136 -16.06,52.156 -24.27,78.162 -1.307,4.145 -0.247,5.977 3.404,7.062 7.116,2.131 14.145,4.65 21.245,6.838 35.55,11.012 335.697,110.585 371.282,121.431 3.555,1.085 4.642,3.233 4.737,7.001 0.185,7.737 -1.461,15.191 -2.551,22.72 -1.722,11.848 -3.49,12.888 -14.154,9.58 -41.941,-13.003 -348.529,-114.435 -390.428,-127.582 -5.552,-1.736 -8.339,-0.818 -10.292,5.755 -8.034,26.938 -16.578,53.685 -24.879,80.53 -3.208,10.376 -3.098,10.42 6.239,13.339 22.262,6.953 364.128,105.356 386.366,112.418 8.675,2.765 10.036,7.059 6.447,20.561 -2.184,8.232 -7.814,4.76 -12.116,3.468 -23.045,-6.922 -365.598,-105.625 -388.577,-112.785 -8.836,-2.762 -9.371,-2.322 -12.509,7.701 -13.004,41.49 -26.098,82.947 -39.156,124.406 -10.344,-0.011 -20.688,-0.021 -31.035,-0.032 4.537,-4.403 5.768,-10.783 7.557,-16.626 11.747,-38.545 24.031,-76.888 35.928,-115.381 0.556,-1.807 1.065,-3.641 1.476,-5.502 1.578,-7.167 0.313,-9.993 -6.114,-12.284 -17.822,-6.34 -35.913,-11.674 -53.944,-17.232 -23.73,-7.3 -47.339,-15.079 -71.141,-22.073 -10.682,-3.136 -12.828,-1.945 -16.498,9.475 -15.035,46.819 -29.733,93.773 -44.907,140.531 -0.839,2.576 -1.491,5.226 -2.817,7.558 -1.414,2.48 -3.311,4.196 -6.122,3.402 -3.075,-0.872 -4.192,-3.553 -4.342,-6.797 -0.14,-3.093 0.947,-5.899 1.848,-8.727 23.507,-73.91 46.799,-147.901 70.678,-221.67 4.163,-12.847 8.428,-25.667 12.252,-38.644 3.861,-13.103 2.832,-15.167 -9.307,-19.141 -21.723,-7.114 -121.5,-31.808 -143.263,-38.783 -17.271,-5.533 -34.679,-10.55 -51.921,-16.188 -8.563,-2.794 -9.726,-4.917 -9.005,-14.766 1.425,-19.491 3.343,-21.176 20.502,-15.923 30.386,9.294 138.537,37.244 168.88,46.702 11.63,3.63 13.509,2.548 17.519,-9.873 15.68,-48.592 31.309,-97.21 46.702,-145.917 1.437,-4.545 1.722,-8.987 1.072,-13.678 C 0.716,112.973 -7.087,57.963 -14.674,2.908 c -1.305,-9.478 -4.071,-12 -12.494,-10.037 -14.937,3.49 -29.772,7.518 -44.59,11.589 -23.185,6.378 -46.539,11.986 -69.725,18.342 -10.054,2.758 -12.318,0.973 -14.197,-10.085 -0.138,-0.806 -0.274,-1.608 -0.383,-2.418 -2.083,-15.695 -1.313,-17.062 12.534,-20.863 37.295,-10.238 74.788,-19.53 112.083,-29.758 8.384,-2.306 9.843,-4.403 8.771,-13.618 -2.295,-19.764 -5.544,-39.379 -8.092,-59.099 -0.378,-2.911 -1.578,-5.106 -3.492,-6.96 5.909,0.008 11.82,0.012 17.735,0.018 2.89,21.29 5.817,42.582 8.648,63.876 0.543,4.106 2.227,5.94 6.143,6.518 66.526,9.792 133.04,19.733 199.554,29.691 19.736,2.954 39.47,5.905 59.167,9.19 4.445,0.742 6.914,-0.358 8.4,-5.163"
             fill="#59595c"
             fill-rule="evenodd"
             id="path38" />
        </g>
      </g>
    </g>
    <g
       clip-path="url(#clip_3)"
       id="g61"
       style="display:inline">
      <g
         opacity="0.100006"
         id="g43">
        <g
           clip-path="url(#clip_4)"
           id="g42">
          <path
             transform="matrix(1,0,0,-1,492.2818,778.40689)"
             d="m 0,0 c 0,-7.75 -6.281,-14.032 -14.03,-14.032 -7.749,0 -14.032,6.282 -14.032,14.032 0,7.749 6.283,14.031 14.032,14.031 C -6.281,14.031 0,7.749 0,0"
             fill="#fbed1f"
             id="path41" />
          <path
             transform="matrix(1,0,0,-1,478.252,755.79788)"
             d="m 0,0 c -12.468,0 -22.61,-10.143 -22.61,-22.609 0,-12.466 10.142,-22.609 22.61,-22.609 12.466,0 22.608,10.143 22.608,22.609 C 22.608,-10.143 12.466,0 0,0 m 0,-54.119 c -17.375,0 -31.509,14.135 -31.509,31.51 C -31.509,-5.236 -17.375,8.9 0,8.9 17.374,8.9 31.509,-5.236 31.509,-22.609 31.509,-39.984 17.374,-54.119 0,-54.119"
             fill="#fbed1f"
             id="path42" />
        </g>
      </g>
      <g
         opacity="0.100006"
         id="g45">
        <g
           clip-path="url(#clip_5)"
           id="g44">
          <path
             transform="matrix(1,0,0,-1,403.7255,1143.5027)"
             d="m 0,0 c 0,-7.748 -6.283,-14.029 -14.03,-14.029 -7.751,0 -14.033,6.281 -14.033,14.029 0,7.75 6.282,14.031 14.033,14.031 C -6.283,14.031 0,7.75 0,0"
             fill="#fbed1f"
             id="path43" />
          <path
             transform="matrix(1,0,0,-1,389.6951,1120.8927)"
             d="m 0,0 c -12.467,0 -22.61,-10.142 -22.61,-22.61 0,-12.466 10.143,-22.608 22.61,-22.608 12.466,0 22.608,10.142 22.608,22.608 C 22.608,-10.142 12.466,0 0,0 m 0,-54.118 c -17.376,0 -31.511,14.133 -31.511,31.508 C -31.511,-5.235 -17.376,8.9 0,8.9 17.373,8.9 31.507,-5.235 31.507,-22.61 31.507,-39.985 17.373,-54.118 0,-54.118"
             fill="#fbed1f"
             id="path44" />
        </g>
      </g>
      <g
         opacity="0.100006"
         id="g47">
        <g
           clip-path="url(#clip_6)"
           id="g46">
          <path
             transform="matrix(1,0,0,-1,585.54,1071.407)"
             d="m 0,0 c 0,-7.747 -6.281,-14.03 -14.031,-14.03 -7.75,0 -14.033,6.283 -14.033,14.03 0,7.751 6.283,14.031 14.033,14.031 C -6.281,14.031 0,7.751 0,0"
             fill="#fbed1f"
             id="path45" />
          <path
             transform="matrix(1,0,0,-1,571.5092,1048.796)"
             d="m 0,0 c -12.467,0 -22.611,-10.143 -22.611,-22.611 0,-12.466 10.144,-22.608 22.611,-22.608 12.465,0 22.608,10.142 22.608,22.608 C 22.608,-10.143 12.465,0 0,0 m 0,-54.119 c -17.375,0 -31.51,14.134 -31.51,31.508 C -31.51,-5.234 -17.375,8.9 0,8.9 17.374,8.9 31.508,-5.234 31.508,-22.611 31.508,-39.985 17.374,-54.119 0,-54.119"
             fill="#fbed1f"
             id="path46" />
        </g>
      </g>
      <g
         opacity="0.100006"
         id="g49">
        <g
           clip-path="url(#clip_7)"
           id="g48">
          <path
             transform="matrix(1,0,0,-1,648.5575,863.82986)"
             d="m 0,0 c 0,-7.749 -6.281,-14.031 -14.03,-14.031 -7.75,0 -14.032,6.282 -14.032,14.031 0,7.748 6.282,14.03 14.032,14.03 C -6.281,14.03 0,7.748 0,0"
             fill="#fbed1f"
             id="path47" />
          <path
             transform="matrix(1,0,0,-1,634.5276,841.2202)"
             d="m 0,0 c -12.467,0 -22.611,-10.143 -22.611,-22.61 0,-12.466 10.144,-22.608 22.611,-22.608 12.465,0 22.609,10.142 22.609,22.608 C 22.609,-10.143 12.465,0 0,0 m 0,-54.118 c -17.375,0 -31.511,14.133 -31.511,31.508 0,17.375 14.136,31.511 31.511,31.511 17.373,0 31.509,-14.136 31.509,-31.511 0,-17.375 -14.136,-31.508 -31.509,-31.508"
             fill="#fbed1f"
             id="path48" />
        </g>
      </g>
      <path
         transform="matrix(1,0,0,-1,630.814,849.6732)"
         d="m 0,0 c 0,3.231 4.977,3.426 4.977,3.426 h 0.192 c 1.746,2.971 4.654,5.749 9.823,5.749 4.263,0 7.494,-2.585 8.849,-6.266 h 0.131 c 0.969,1.743 2.198,3.1 3.486,4.07 1.874,1.42 3.942,2.196 6.915,2.196 4.133,0 10.271,-2.713 10.271,-13.567 v -18.413 h -5.556 v 17.701 c 0,6.01 -2.197,9.627 -6.784,9.627 -3.23,0 -5.748,-2.39 -6.717,-5.168 -0.26,-0.776 -0.452,-1.809 -0.452,-2.843 V -22.805 H 19.578 V -4.07 c 0,4.976 -2.196,8.593 -6.524,8.593 C 9.498,4.523 6.915,1.681 6.011,-1.162 5.687,-2.002 5.559,-2.971 5.559,-3.94 V -22.805 H 0 Z"
         fill="#fbed1f"
         id="path49" />
      <path
         transform="matrix(1,0,0,-1,723.3726,832.4227)"
         d="m 0,0 c 0.066,-1.873 -1.293,-3.488 -3.552,-3.488 -2.134,0 -3.49,1.615 -3.49,3.488 0,2.003 1.486,3.554 3.618,3.554 C -1.355,3.554 0,2.003 0,0 m -8.463,-46.709 c 1.552,1.809 2.132,4.263 2.132,11.757 v 26.166 h 5.686 v -28.362 c 0,-6.073 -0.599,-10.907 -3.749,-12.857 -3.028,-1.875 -6.522,-0.925 -9.615,0.909 0,0 4.19,0.9 5.546,2.387"
         fill="#fbed1f"
         id="path50" />
      <path
         transform="matrix(1,0,0,-1,695.306,845.30117)"
         d="m 0,0 c -6.168,0 -11.185,-5.02 -11.185,-11.187 0,-6.167 5.017,-11.187 11.185,-11.187 6.169,0 11.186,5.02 11.186,11.187 C 11.186,-5.02 6.169,0 0,0 m 0,-27.158 c -8.806,0 -15.972,7.165 -15.972,15.971 0,8.807 7.166,15.972 15.972,15.972 8.806,0 15.973,-7.165 15.973,-15.972 0,-8.806 -7.167,-15.971 -15.973,-15.971"
         fill="#fbed1f"
         id="path51" />
      <path
         transform="matrix(1,0,0,-1,455.5341,893.6671)"
         d="m 0,0 h -104.911 v -31.465 h 36.31 V -170.478 H -31.21 V -31.465 H 0 Z"
         fill="#fbed1f"
         id="path52" />
      <path
         transform="matrix(1,0,0,-1,508.2126,995.8027)"
         d="m 0,0 h -12.753 l 6.375,37.713 z M 129.725,102.136 110.801,57.976 91.74,102.136 H 50.547 L 90.499,17.349 51.22,-66.951 17.408,102.136 H -29.84 L -64.422,-68.342 h 38.756 l 7.166,37.667 H 5.536 l 6.9,-37.667 h 38.138 0.92 39.28 l 20.029,45.839 19.885,-45.839 H 170.9 l -39.923,85.691 39.947,84.787 z"
         fill="#fbed1f"
         id="path53" />
      <path
         transform="matrix(1,0,0,-1,0,1920)"
         d="m 685.986,855.855 h 37.39006 v 170.478 H 685.986 Z"
         fill="#fbed1f"
         id="path54" />
      <g
         clip-path="url(#clip_8)"
         id="g60">
        <g
           opacity="0.669998"
           id="g59">
          <g
             clip-path="url(#clip_9)"
             id="g58">
            <g
               opacity="0.279999"
               id="g57">
              <g
                 clip-path="url(#clip_10)"
                 id="g56">
                <g
                   clip-path="url(#clip_11)"
                   id="g55">
                  <path
                     transform="matrix(1,0,0,-1,2251.3155,838.67568)"
                     d="m 0,0 c -48.195,-36.016 -96.354,-72.053 -144.558,-108.072 -24.976,-18.673 -49.692,-37.763 -75.092,-55.816 -15.304,-10.861 -24.671,-25.297 -32.601,-41.288 -5.479,-11.046 -12.005,-21.752 -16.696,-33.031 -4.36,-10.482 -9.241,-10.504 -17.318,-6.228 -35.411,18.709 -71.058,36.977 -106.653,55.388 -39.529,20.445 -78.855,41.263 -118.769,61.043 -10.152,5.02 -10.843,9.658 -5.202,20.17 55.957,104.393 111.416,209.018 167.045,313.566 6.639,12.485 14.045,24.661 19.927,37.428 5.141,11.197 10.047,12.329 18.824,5.631 28.752,-21.947 58.014,-43.268 87.027,-64.886 C -152.176,130.353 -80.314,76.77 -8.436,23.163 -4.571,20.297 -0.807,17.276 4.664,13.054 11.788,8.493 5.722,4.276 0,0 m -534.384,-209.821 c -16.034,-29.91 -32.197,-59.743 -48.031,-89.727 -3.503,-6.618 -7,-8.239 -12.943,-4.55 -20.446,12.687 -22.616,5.72 -8.302,32.12 12.614,23.243 24.771,46.704 37.343,69.971 8.166,15.129 8.321,15.064 22.66,7.924 2.895,-1.44 5.75,-2.932 7.188,-3.674 5.737,-3.907 4.285,-7.945 2.085,-12.064 m 91.484,-266.246 c -22.465,-42.039 -44.537,-84.254 -66.464,-126.525 -4.077,-7.847 -7.614,-10.151 -15.573,-5.884 -57.357,30.696 -115.016,60.922 -172.576,91.287 -7.855,4.147 -15.754,8.231 -22.281,11.602 -5.665,3.952 -4.002,7.943 -1.812,12.066 23.018,43.243 46.342,86.357 68.809,129.829 6.222,12.043 12.302,8.155 19.257,4.44 49.564,-26.428 99.108,-52.919 148.653,-79.392 12.467,-6.667 24.604,-13.978 37.557,-19.748 9.143,-4.057 9.088,-8.944 4.43,-17.675 m 157.222,801.846 c 26.697,49.802 53.202,99.704 79.854,149.525 1.201,2.271 3.227,4.181 4.873,6.254 -6.219,6.266 -12.447,12.545 -18.659,18.817 -1.672,-0.219 -3.422,-0.783 -5.01,-0.603 -24.799,2.793 -24.992,2.781 -37.577,-20.806 -20.789,-38.987 -41.384,-78.073 -62.21,-117.045 -7.517,-14.054 -8.636,-14.081 -20.314,-5.275 -29.184,21.982 -310.889,298.215 -339.905,320.423 -5.845,4.468 -10.297,3.679 -15.276,-1.855 -8.639,-9.624 -17.136,-19.373 -25.844,-28.95 -10.746,-11.841 -10.815,-13.721 1.13,-22.709 32.127,-24.145 316.293,-303.218 349.055,-326.531 9.694,-6.904 10.055,-12.776 4.172,-23.643 -27.806,-51.3 -54.803,-102.954 -82.226,-154.421 -36.585,-68.639 -73.392,-137.17 -109.862,-205.847 -4.227,-7.968 -8.537,-8.81 -15.203,-5.16 -13.478,7.349 -27.196,14.322 -40.828,21.394 -47.063,24.444 -435.469,255.783 -482.42,280.373 -7.424,3.886 -13.559,4.408 -20.084,-3.523 -19.427,-23.592 -17.547,-22.066 3.197,-33.824 1.41,-0.801 28.105,-26.971 29.549,-27.71 57.899,-29.91 431.844,-241.385 489.757,-271.282 6.412,-3.313 12.046,-6.128 6.631,-16.077 -21.373,-39.204 -42.265,-78.609 -63.109,-118.05 -3.325,-6.281 -6.671,-7.159 -12.118,-4.174 -10.64,5.797 -21.617,11.041 -32.303,16.749 -53.552,28.523 -513.356,261.76 -566.751,290.523 -5.338,2.874 -9.086,1.654 -13.579,-2.569 -9.213,-8.69 -15.99,-19.165 -23.503,-29.094 -11.809,-15.627 -10.992,-18.869 5.077,-27.431 63.186,-33.634 532.54,-272.202 595.852,-305.623 8.379,-4.434 10.511,-8.72 5.096,-18.55 -22.126,-40.301 -43.449,-80.971 -65.165,-121.472 -8.391,-15.661 -8.574,-15.584 -22.664,-8.119 -33.602,17.796 -539.859,300.722 -573.561,318.369 -13.155,6.863 -19.714,3.503 -31.302,-16.187 -7.072,-12.004 3.417,-14.532 9.846,-18.028 34.468,-18.74 541.863,-302.123 576.519,-320.507 13.34,-7.068 13.44,-8.194 5.384,-23.36 -33.367,-62.803 -66.588,-125.668 -99.851,-188.496 11.867,-11.972 23.734,-23.95 35.599,-35.927 -0.075,10.318 5.934,19.087 10.687,27.884 31.371,57.957 61.902,116.312 93.047,174.377 1.464,2.721 3.012,5.429 4.707,8.042 6.534,10.071 11.267,11.862 21.296,7.047 27.796,-13.358 54.737,-28.188 81.868,-42.683 35.689,-19.097 71.79,-37.505 107.208,-57.046 15.888,-8.762 16.961,-12.622 7.877,-30.011 -37.231,-71.288 -75.003,-142.336 -112.009,-213.714 -2.031,-3.94 -4.369,-7.744 -5.561,-11.963 -1.268,-4.491 -1.084,-8.662 3.062,-11.006 4.535,-2.558 8.932,-0.775 12.875,2.789 3.763,3.397 5.779,7.88 8.035,12.179 59.037,112.273 118.422,224.392 176.869,336.927 10.17,19.606 20.194,39.296 30.914,58.658 10.813,19.545 14.396,20.735 32.932,11.239 33.164,-16.989 176.243,-104.195 209.293,-121.387 26.23,-13.649 52.012,-28.045 78.332,-41.538 13.067,-6.713 16.872,-5.615 27.5,6.555 21.043,24.071 20.804,28.231 -4.975,42.075 -45.625,24.516 -202.093,117.677 -247.863,141.958 -17.553,9.299 -18.446,12.722 -8.594,31.659 38.558,74.074 77.203,148.122 116.22,221.992 3.645,6.892 8.486,12.341 14.686,16.978 72.765,54.487 145.698,108.736 218.436,163.285 12.528,9.388 18.63,9.086 25.994,-2.928 13.06,-21.329 25.378,-43.157 37.624,-65.009 19.15,-34.202 39.393,-67.718 58.571,-101.898 8.308,-14.818 12.985,-15.39 28.002,-4.844 1.089,0.762 2.179,1.533 3.247,2.338 20.646,15.64 21.354,18.106 9.906,38.527 -30.835,54.989 -62.988,109.13 -93.832,164.111 -6.926,12.371 -6.156,16.47 5.792,25.838 25.621,20.072 52.162,38.875 78.023,58.614 3.818,2.905 7.748,4.045 12.098,3.957 -6.779,6.84 -13.559,13.686 -20.348,20.525 C 130.43,97.747 102.309,76.645 74.294,55.418 68.893,51.326 64.832,51.177 59.67,55.038 c -87.634,65.823 -175.419,131.463 -263.227,197.079 -26.059,19.471 -52.108,38.945 -78.504,57.988 -5.952,4.293 -7.508,8.426 -3.617,15.674"
                     fill="#58595b"
                     fill-rule="evenodd"
                     id="path55" />
                </g>
              </g>
            </g>
          </g>
        </g>
      </g>
    </g>
  </g>
</svg>
