<?xml version="1.0" encoding="utf-8"?>
<svg xmlns="http://www.w3.org/2000/svg" width="1024" height="1024" viewBox="-5 -8 683 686">
  <rect x="-5" y="-8" width="683" height="686" fill="#000000"/>
  <path d="M 109.056613 -0.134221 C 109.854756 -0.136573 110.652899 -0.138926 111.475228 -0.141349 C 114.154372 -0.148015 116.833468 -0.147582 119.512619 -0.147171 C 121.451163 -0.150471 123.389706 -0.154197 125.328248 -0.158312 C 130.659554 -0.168324 135.990849 -0.172048 141.322163 -0.174702 C 147.070946 -0.178607 152.81972 -0.188186 158.568497 -0.196915 C 172.455717 -0.216674 186.342937 -0.226745 200.230168 -0.235642 C 206.773225 -0.240027 213.316282 -0.245394 219.859339 -0.250631 C 241.616835 -0.267645 263.37433 -0.282162 285.131831 -0.28938 C 286.538621 -0.289855 287.945411 -0.290331 289.352201 -0.290808 C 290.049821 -0.291044 290.747442 -0.29128 291.466202 -0.291524 C 295.000499 -0.292725 298.534795 -0.293941 302.069092 -0.295166 C 302.770476 -0.295406 303.47186 -0.295646 304.194498 -0.295894 C 326.914473 -0.30378 349.634396 -0.327196 372.354348 -0.359722 C 396.393829 -0.394074 420.43328 -0.413735 444.472786 -0.417024 C 457.569239 -0.419187 470.665615 -0.427896 483.762045 -0.453485 C 494.918954 -0.475235 506.075767 -0.483222 517.232694 -0.473519 C 522.920088 -0.468986 528.607285 -0.4708 534.294651 -0.49028 C 539.513093 -0.507999 544.731197 -0.506844 549.949643 -0.491383 C 551.825971 -0.48902 553.702323 -0.493261 555.578615 -0.505212 C 588.535362 -0.70192 617.970691 11.170109 641.625 34.125 C 658.059139 50.657724 673.07046 76.389515 673.27358 100.224122 C 673.268271 101.350755 673.268271 101.350755 673.262856 102.500148 C 673.266961 103.321948 673.271066 104.143749 673.275296 104.990452 C 673.286585 107.738096 673.283728 110.485537 673.280884 113.2332 C 673.286054 115.225668 673.292081 117.218135 673.298891 119.210598 C 673.315003 124.681754 673.318608 130.152858 673.320086 135.624035 C 673.323792 141.526888 673.338889 147.429713 673.352356 153.33255 C 673.380922 166.91309 673.392575 180.493626 673.40174 194.07419 C 673.406417 200.792038 673.413623 207.509882 673.421131 214.227727 C 673.446801 237.244294 673.468237 260.260858 673.475136 283.277438 C 673.475579 284.721608 673.476023 286.165777 673.476467 287.609946 C 673.476908 289.057522 673.477349 290.505098 673.477789 291.952675 C 673.478674 294.856552 673.479569 297.760429 673.480469 300.664307 C 673.480797 301.744291 673.480797 301.744291 673.481132 302.846094 C 673.488386 326.169279 673.5202 349.492339 673.566849 372.815477 C 673.61613 397.499832 673.643485 422.184116 673.645872 446.868521 C 673.646215 449.582618 673.646645 452.296716 673.64714 455.010813 C 673.647252 455.679053 673.647364 456.347293 673.647478 457.035783 C 673.649631 467.091964 673.668295 477.148025 673.695511 487.204168 C 673.7264 498.657814 673.736503 510.111246 673.720035 521.564925 C 673.712251 527.402537 673.713933 533.239719 673.742149 539.077276 C 673.767809 544.435279 673.765076 549.792535 673.740968 555.150538 C 673.737085 557.075297 673.743066 559.000111 673.760657 560.924793 C 673.931683 580.924891 668.928504 598.661126 659 616 C 658.434102 617.00418 657.868203 618.008359 657.285156 619.042969 C 644.776549 639.910269 624.723278 654.936444 603 665 C 602.137617 665.4125 601.275234 665.825 600.386719 666.25 C 585.871885 672.667612 570.494529 673.588938 554.885742 673.507935 C 552.919626 673.512555 550.953513 673.518915 548.987408 673.526844 C 543.635582 673.543406 538.284045 673.535351 532.932219 673.522899 C 527.140706 673.513796 521.349242 673.527843 515.557739 673.538818 C 504.23227 673.556553 492.906908 673.552786 481.581435 673.541168 C 472.372437 673.532114 463.163469 673.530918 453.954468 673.535263 C 452.641032 673.535876 451.327596 673.536489 449.974358 673.53712 C 447.974762 673.538079 445.975166 673.539037 443.97557 673.540028 C 419.026386 673.552244 394.077259 673.541202 369.128084 673.51964 C 346.998119 673.50066 324.868246 673.502359 302.738281 673.521484 C 277.832578 673.542937 252.926925 673.551377 228.021214 673.539035 C 225.362653 673.537761 222.704093 673.536504 220.045532 673.535263 C 218.737658 673.534646 217.429784 673.534029 216.082278 673.533393 C 206.890248 673.529947 197.698251 673.535752 188.506226 673.545181 C 177.295764 673.556429 166.085415 673.553302 154.874967 673.532058 C 149.161297 673.521586 143.447814 673.517361 137.734146 673.530655 C 132.493395 673.542663 127.253001 673.535878 122.012282 673.514745 C 120.126917 673.510314 118.241521 673.512464 116.356176 673.522248 C 87.223521 673.661715 62.732397 664.104244 40 646 C 39.345156 645.499844 38.690312 644.999688 38.015625 644.484375 C 32.501822 640.08345 28.307602 634.544734 24 629 C 22.975195 627.716094 22.975195 627.716094 21.929687 626.40625 C 14.147682 616.274384 8.793517 604.967878 4.625 592.9375 C 4.386362 592.267107 4.147725 591.596714 3.901855 590.906006 C -0.47338 577.519304 -0.291704 563.361428 -0.260696 549.447372 C -0.263723 547.505747 -0.267614 545.564122 -0.272289 543.6225 C -0.282518 538.324658 -0.2804 533.026884 -0.276108 527.729037 C -0.273632 522.000956 -0.282667 516.27289 -0.290146 510.544815 C -0.302868 499.338618 -0.30469 488.132444 -0.302346 476.92624 C -0.30056 467.816303 -0.302317 458.706374 -0.30657 449.596437 C -0.307165 448.298092 -0.30776 446.999747 -0.308374 445.662058 C -0.309585 443.024211 -0.3108 440.386364 -0.312016 437.748517 C -0.319798 420.049754 -0.323726 402.350993 -0.319699 384.652228 C -0.319543 383.961027 -0.319387 383.269826 -0.319225 382.55768 C -0.31842 379.054836 -0.317574 375.551991 -0.316712 372.049147 C -0.316541 371.353537 -0.31637 370.657927 -0.316194 369.941239 C -0.315847 368.534551 -0.315498 367.127863 -0.315148 365.721175 C -0.309789 343.826714 -0.317729 321.932294 -0.336182 300.037842 C -0.356914 275.409447 -0.367591 250.781077 -0.363606 226.152673 C -0.361695 213.123043 -0.364175 200.093449 -0.378321 187.063826 C -0.390238 175.974704 -0.391635 164.885642 -0.379531 153.796519 C -0.373645 148.142123 -0.372533 142.487835 -0.384533 136.833447 C -0.395403 131.651442 -0.392275 126.469637 -0.378271 121.287641 C -0.375627 119.419078 -0.377981 117.550499 -0.386007 115.681951 C -0.49634 88.066169 8.831746 58.704762 28.5 38.421875 C 29.325 37.622656 30.15 36.823438 31 36 C 31.697383 35.244609 32.394766 34.489219 33.113281 33.710938 C 52.136527 13.505075 81.135275 -0.1905 109.056613 -0.134221 Z" fill="#060606"/>
  <path d="M 109.109686 -0.123048 C 109.913521 -0.124202 110.717357 -0.125356 111.545551 -0.126544 C 114.243879 -0.129195 116.942147 -0.124702 119.640472 -0.120255 C 121.592557 -0.120691 123.544641 -0.121566 125.496725 -0.122844 C 130.864719 -0.125083 136.232693 -0.121076 141.600685 -0.116066 C 147.387955 -0.111753 153.175223 -0.113208 158.962494 -0.113968 C 168.990617 -0.114493 179.018734 -0.111351 189.046856 -0.10573 C 203.545891 -0.097608 218.044922 -0.094999 232.543959 -0.093742 C 256.066906 -0.091642 279.589849 -0.084904 303.112793 -0.075439 C 325.965006 -0.066255 348.817219 -0.059171 371.669434 -0.054932 C 372.726041 -0.054734 372.726041 -0.054734 373.803995 -0.054533 C 380.877922 -0.053215 387.951849 -0.051939 395.025776 -0.050694 C 409.43618 -0.048158 423.846584 -0.045337 438.256989 -0.042343 C 439.250839 -0.042137 439.250839 -0.042137 440.264767 -0.041927 C 484.509846 -0.032726 528.754923 -0.01686 573 0 C 573 0.33 573 0.66 573 1 C 571.896401 1.053899 571.896401 1.053899 570.770508 1.108887 C 563.38041 1.58062 556.799749 2.91363 549.75 5.125 C 547.644621 5.762017 545.53915 6.398727 543.433594 7.035156 C 542.368667 7.36145 541.30374 7.687744 540.206543 8.023926 C 535.088325 9.581916 529.950361 11.070836 524.8125 12.5625 C 523.815732 12.853345 522.818965 13.144189 521.791992 13.443848 C 514.511172 15.567717 507.220529 17.655755 499.92627 19.73291 C 488.284699 23.0525 476.669174 26.46198 465.05127 29.863281 C 452.191115 33.627858 439.31824 37.344021 426.431641 41.01709 C 415.921753 44.015567 405.428785 47.069969 394.939941 50.141113 C 391.954552 51.013277 388.967734 51.880381 385.980469 52.746094 C 374.966625 55.941166 363.98252 59.21589 353.020264 62.58374 C 346.611535 64.541023 340.181685 66.302195 333.695312 67.984375 C 328.670965 69.365274 323.727937 70.9705 318.770996 72.573975 C 310.820855 75.117289 302.781984 77.321855 294.715332 79.464111 C 288.524492 81.146502 282.76953 83.186968 277 86 C 276.709907 91.569784 277.64729 95.772352 279.5 101 C 281.31084 106.109506 282.639785 110.484382 282 116 C 278.069916 121.086621 270.866532 123.765131 265 126 C 263.948125 126.4125 262.89625 126.825 261.8125 127.25 C 255.628806 128.466464 247.983417 129.355611 241.913086 127.289795 C 239.323398 125.543838 239.02905 124.076255 238.183594 121.097656 C 237.749502 119.63876 237.749502 119.63876 237.306641 118.150391 C 237.019824 117.131387 236.733008 116.112383 236.4375 115.0625 C 235.86148 113.050899 235.277175 111.041646 234.683594 109.035156 C 234.431501 108.141917 234.179409 107.248677 233.919678 106.328369 C 232.667684 103.073843 232.667684 103.073843 230 101 C 224.665143 101.25737 220.00239 102.452169 214.917969 104.109375 C 214.243401 104.326642 213.568834 104.54391 212.873825 104.767761 C 211.384683 105.247726 209.896485 105.730624 208.409119 106.216064 C 204.947793 107.342392 201.478919 108.44472 198.010681 109.549545 C 195.126017 110.468987 192.242326 111.391422 189.358887 112.314697 C 170.980753 118.198228 152.590279 124.031523 134.149902 129.717285 C 125.99586 132.234965 117.849086 134.776173 109.700745 137.312225 C 106.776974 138.222154 103.853101 139.131753 100.929199 140.04126 C 95.619146 141.693147 90.309467 143.346231 85 145 C 84.247419 145.234327 83.494838 145.468655 82.719452 145.710083 C 73.697025 148.520212 64.685818 151.363433 55.6875 154.25 C 54.592441 154.600625 53.497383 154.95125 52.369141 155.3125 C 46.677347 157.13411 46.677347 157.13411 41 159 C 40.756206 165.351472 41.320117 170.231894 43.449219 176.191406 C 43.703713 176.939783 43.958207 177.688159 44.220413 178.459213 C 45.030001 180.831596 45.85795 183.197033 46.6875 185.5625 C 47.491346 187.893435 48.291274 190.225688 49.090897 192.558075 C 49.624358 194.113791 50.159111 195.669065 50.695114 197.223907 C 52.782717 203.298537 54.723706 209.408996 56.61792 215.546631 C 58.299924 220.99019 60.036098 226.416393 61.769531 231.84375 C 62.262983 233.389349 62.262983 233.389349 62.766403 234.966171 C 63.781372 238.144241 64.796923 241.322125 65.8125 244.5 C 66.512415 246.691392 67.212285 248.882798 67.912109 251.074219 C 69.60747 256.383005 71.303754 261.691496 73 267 C 73.33 259.41 73.66 251.82 74 244 C 122.18 244 170.36 244 220 244 C 220.33 246.64 220.66 249.28 221 252 C 222.833493 251.438022 224.66678 250.87537 226.5 250.3125 C 227.650126 249.96475 228.800251 249.617 229.985229 249.258713 C 232.575737 248.462823 235.107234 247.603905 237.662231 246.689896 C 247.387161 243.249406 255.924509 242.371336 266.21875 242.730469 C 267.697991 242.762356 269.177284 242.791874 270.656616 242.819168 C 274.491028 242.896101 278.323878 243.004499 282.157288 243.120239 C 286.78843 243.253202 291.420548 243.345708 296.052505 243.445259 C 303.035836 243.599746 310.017829 243.800536 317 244 C 322.280338 268.013977 327.077763 292.122831 331.887456 316.234494 C 333.019112 321.905451 334.153011 327.57596 335.286652 333.246521 C 337.423586 343.937359 339.558563 354.628588 341.692801 365.319965 C 344.126653 377.511744 346.562744 389.703075 348.999004 401.894373 C 354.00179 426.929092 359.001828 451.96436 364 477 C 365.269003 474.471983 366.536906 471.943424 367.804199 469.414551 C 368.159512 468.707001 368.514825 467.999452 368.880905 467.270462 C 372.090397 460.862304 375.13187 454.387243 378.125 447.875 C 378.968937 446.047929 379.812884 444.220862 380.657333 442.394028 C 381.237902 441.13794 381.818193 439.881724 382.398209 438.625381 C 384.913276 433.179454 387.450815 427.744168 389.993408 422.311035 C 391.125936 419.888643 392.256564 417.465492 393.383545 415.040527 C 396.444521 408.456597 399.526179 401.883652 402.647018 395.327835 C 404.338471 391.767684 406.017046 388.201544 407.693756 384.63443 C 408.518061 382.888433 409.347898 381.145036 410.183441 379.404388 C 411.354198 376.963629 412.505172 374.514414 413.652344 372.0625 C 414.006776 371.335655 414.361207 370.60881 414.726379 369.85994 C 416.740979 365.492135 417.441721 362.783741 416 358 C 414.999944 355.310479 414.999944 355.310479 413.691406 352.625 C 412.956157 351.053955 412.956157 351.053955 412.206055 349.451172 C 411.663682 348.312285 411.121309 347.173398 410.5625 346 C 409.984088 344.771773 409.406307 343.543248 408.829102 342.314453 C 407.23609 338.928681 405.633322 335.547611 404.028381 332.16748 C 402.6227 329.20478 401.221667 326.23989 399.820496 323.275055 C 394.099869 311.171217 388.361936 299.075572 382.616699 286.983398 C 380.673572 282.893313 378.73322 278.80192 376.794556 274.709717 C 376.068476 273.178456 375.341378 271.647677 374.613159 270.117432 C 373.597569 267.983161 372.585547 265.84723 371.574219 263.710938 C 371.285343 263.106115 370.996467 262.501293 370.698837 261.878143 C 367.918862 255.988473 365.515182 250.036437 363 244 C 381.81 244 400.62 244 420 244 C 424.191032 252.382065 428.235808 260.556235 431.804687 269.175781 C 432.214136 270.152422 432.623585 271.129063 433.045441 272.1353 C 434.326497 275.192493 435.601216 278.25227 436.875 281.3125 C 438.171064 284.418776 439.46852 287.524451 440.768829 290.628952 C 441.571686 292.546468 442.371964 294.465066 443.169403 296.384842 C 443.70599 297.668348 443.70599 297.668348 444.253418 298.977783 C 444.724716 300.110242 444.724716 300.110242 445.205536 301.265579 C 445.873331 302.989464 445.873331 302.989464 447 304 C 447.281484 303.336808 447.562968 302.673615 447.852982 301.990326 C 450.513766 295.722306 453.176389 289.45507 455.841046 283.188696 C 457.21071 279.967532 458.579677 276.746075 459.947021 273.523926 C 461.521169 269.814532 463.098399 266.106457 464.675781 262.398438 C 465.163394 261.248221 465.651007 260.098005 466.153397 258.912933 C 466.613647 257.832266 467.073898 256.751599 467.548096 255.638184 C 468.150992 254.219213 468.150992 254.219213 468.766068 252.771576 C 470.086553 249.805591 471.548053 246.903894 473 244 C 491.81 244 510.62 244 530 244 C 527.750152 250.749544 527.750152 250.749544 526.298584 253.781738 C 525.972542 254.467338 525.6465 255.152938 525.310577 255.859314 C 524.783658 256.953758 524.783658 256.953758 524.246094 258.070313 C 523.873545 258.851505 523.500995 259.632697 523.117157 260.437561 C 522.31357 262.1216 521.508402 263.804885 520.701813 265.487488 C 518.978745 269.08202 517.263361 272.680202 515.547348 276.278107 C 514.662965 278.132043 513.778165 279.985781 512.89296 281.839325 C 507.977059 292.133784 503.098076 302.445657 498.246338 312.770508 C 495.038487 319.592759 491.813945 326.404882 488.517563 333.184906 C 486.992548 336.324919 485.479058 339.470418 483.966644 342.616516 C 483.246278 344.106868 482.520332 345.594538 481.788483 347.079285 C 480.779591 349.127013 479.790301 351.183178 478.804687 353.242188 C 478.237339 354.40605 477.66999 355.569912 477.085449 356.769043 C 475.188247 362.416271 476.969128 366.432054 479.519531 371.578125 C 480.040876 372.642649 480.562222 373.707173 481.099365 374.803955 C 481.6647 375.94115 482.230034 377.078345 482.8125 378.25 C 484.011858 380.694643 485.205108 383.142253 486.398437 385.589844 C 486.854003 386.521738 486.854003 386.521738 487.318771 387.472458 C 490.281289 393.544727 493.122057 399.670752 495.9375 405.8125 C 496.928218 407.970129 497.919106 410.12768 498.910156 412.285156 C 499.411763 413.377153 499.913369 414.46915 500.430176 415.594238 C 502.934078 421.026498 505.463468 426.446801 507.995087 431.86618 C 508.869741 433.738742 509.743656 435.611647 510.617432 437.484619 C 513.4004 443.447846 516.189888 449.407901 518.993378 455.361511 C 520.306483 458.151099 521.616791 460.941998 522.926819 463.733032 C 523.555733 465.070857 524.18605 466.408024 524.81781 467.744507 C 525.691852 469.593685 526.560897 471.445223 527.429687 473.296875 C 528.175813 474.880005 528.175813 474.880005 528.937012 476.495117 C 530 479 530 479 530 481 C 511.52 481 493.04 481 474 481 C 454.01139 435.544419 454.01139 435.544419 447 419 C 442.515707 427.706047 438.481668 436.565662 434.625 445.5625 C 434.055907 446.88251 433.486569 448.202415 432.916992 449.522217 C 429.313153 457.884611 425.74881 466.263833 422.271973 474.679932 C 420.104625 479.895375 420.104625 479.895375 419 481 C 417.583211 481.095507 416.161688 481.121885 414.741684 481.120255 C 413.363908 481.122317 413.363908 481.122317 411.958298 481.12442 C 410.942663 481.120825 409.927027 481.11723 408.880615 481.113525 C 407.81733 481.113671 406.754045 481.113817 405.658539 481.113968 C 402.125203 481.113268 398.59192 481.105473 395.058594 481.097656 C 392.616216 481.095792 390.173839 481.094368 387.731461 481.093369 C 381.288655 481.089542 374.845873 481.07971 368.403076 481.068665 C 361.834476 481.058454 355.265872 481.053872 348.697266 481.048828 C 335.798168 481.038088 322.899085 481.021201 310 481 C 309.038822 476.074636 308.078575 471.149092 307.119141 466.223389 C 306.793542 464.552442 306.467701 462.881542 306.141602 461.210693 C 305.220918 456.492897 304.304599 451.774301 303.396118 447.054138 C 303.042423 445.219991 302.685037 443.386556 302.327148 441.553223 C 302.144424 440.593354 301.961699 439.633486 301.773437 438.644531 C 301.620522 437.850227 301.467607 437.055923 301.310059 436.237549 C 301 434 301 434 301 429 C 289.78 429 278.56 429 267 429 C 266.4225 432.320625 265.845 435.64125 265.25 439.0625 C 265.055835 440.174961 264.86167 441.287422 264.661621 442.433594 C 263.731305 447.765874 262.811882 453.099646 261.914062 458.4375 C 261.739717 459.464802 261.565371 460.492104 261.385742 461.550537 C 261.051869 463.519461 260.721636 465.489007 260.395508 467.459229 C 259.597846 472.137758 258.678093 476.537461 257 481 C 255.823086 480.979375 254.646172 480.95875 253.433594 480.9375 C 240.002879 480.998229 229.130422 484.259415 216.665527 489.020508 C 212.86951 490.415417 209.018792 491.539718 205.125 492.625 C 199.500179 494.215103 193.996428 496.010942 188.5 498 C 180.76273 500.796657 172.936892 503.132614 165.033691 505.408691 C 158.989015 507.166219 152.992631 509.074409 147 511 C 145.91606 511.346436 144.832119 511.692871 143.715332 512.049805 C 140.035816 513.230786 136.361286 514.426323 132.6875 515.625 C 131.487544 516.009463 130.287588 516.393926 129.05127 516.790039 C 127.924468 517.160967 126.797666 517.531895 125.636719 517.914063 C 124.623113 518.243579 123.609507 518.573096 122.565186 518.912598 C 120.007859 519.996669 118.614394 520.752599 117 523 C 117.099564 528.675151 118.705752 533.071912 120.898437 538.253906 C 122.498417 542.242507 123.698615 546.326521 124.929687 550.441406 C 125.891754 553.640102 126.892624 556.822502 127.909668 560.003906 C 128.561746 562.060122 129.197522 564.120699 129.828125 566.183594 C 130.519276 568.434442 131.229922 570.679729 131.984375 572.910156 C 137.308522 590.364316 133.494978 609.469158 130.625 627.01709 C 129.252286 635.605525 128.153208 644.237992 126.984528 652.856018 C 126.675168 655.132139 126.363143 657.407883 126.050781 659.683594 C 125.959258 660.364687 125.867734 661.04578 125.773437 661.747513 C 125.341816 664.885311 124.859086 667.948529 124 671 C 120.854186 671.028885 117.708405 671.046759 114.5625 671.0625 C 113.664668 671.070879 112.766836 671.079258 111.841797 671.087891 C 110.987793 671.091113 110.133789 671.094336 109.253906 671.097656 C 108.463147 671.102893 107.672388 671.10813 106.857666 671.113525 C 105 671 105 671 104 670 C 104.328105 653.443318 107.06066 636.539708 109.792969 620.246094 C 110.632397 615.176281 111.350344 610.097385 112 605 C 112.167578 603.740586 112.335156 602.481172 112.507812 601.183594 C 113.318643 589.060366 109.043116 578.01484 105.226746 566.66983 C 98.860216 547.73127 92.928962 528.644604 86.942383 509.583405 C 79.651976 486.388796 72.236532 463.235936 64.743019 440.106205 C 64.013861 437.855288 63.285176 435.604218 62.55658 433.353119 C 59.611076 424.255185 56.651245 415.162028 53.677612 406.07325 C 52.983226 403.948679 52.290773 401.823485 51.598633 399.698181 C 50.4562 396.192156 49.307086 392.688384 48.153137 389.186132 C 47.723267 387.87842 47.295436 386.570035 46.869812 385.260935 C 46.283584 383.459415 45.688848 381.66067 45.09375 379.862061 C 44.760527 378.846617 44.427305 377.831173 44.083984 376.784958 C 42.986525 373.96538 41.564381 371.580703 40 369 C 40 368.34 40 367.68 40 367 C 31.812366 365.427555 25.584959 366.81545 17.75 369.375 C 15.66237 370.031552 13.573853 370.68529 11.484375 371.335938 C 10.573975 371.630327 9.663574 371.924717 8.725586 372.228027 C 5.832626 373.047406 2.966926 373.526332 -0 374 C -0.068746 339.204943 -0.121569 304.409901 -0.153196 269.61479 C -0.156948 265.501982 -0.160831 261.389175 -0.164795 257.276367 C -0.165582 256.45762 -0.166369 255.638874 -0.16718 254.795317 C -0.180215 241.558074 -0.203858 228.320871 -0.231458 215.083652 C -0.259565 201.489538 -0.276187 187.895444 -0.282265 174.301302 C -0.286371 165.920681 -0.299313 157.540171 -0.323749 149.159584 C -0.339672 143.40382 -0.344386 137.648112 -0.340504 131.892327 C -0.338593 128.577137 -0.343081 125.262296 -0.357616 121.947115 C -0.46415 96.387294 -0.46415 96.387294 3 85 C 3.222584 84.242748 3.445168 83.485496 3.674497 82.705297 C 9.036975 65.825734 18.230363 48.370586 31 36 C 31.697383 35.244609 32.394766 34.489219 33.113281 33.710938 C 52.143234 13.49795 81.174583 -0.222019 109.109686 -0.123048 Z" fill="#2D2D2D"/>
  <path d="M 619 16 C 645.136384 32.334538 662.200648 56.714656 671 86 C 671.37125 87.121484 671.37125 87.121484 671.75 88.265625 C 673.019637 92.462479 673.072774 96.401471 673.042969 100.742188 C 673.036765 101.913784 673.030562 103.085381 673.02417 104.29248 C 673.016194 105.185962 673.008218 106.079443 673 107 C 672.032559 107.314128 671.065117 107.628257 670.068359 107.951904 C 646.966741 115.455197 623.875647 122.990805 600.792969 130.552155 C 598.000136 131.46695 595.206997 132.3808 592.413574 133.293793 C 588.4221 134.598522 584.431382 135.905539 580.441406 137.214844 C 579.804097 137.423926 579.166788 137.633007 578.510166 137.848425 C 569.881078 140.682843 561.299781 143.628211 552.743362 146.673889 C 547.08571 148.668991 541.382813 150.393 535.614304 152.034851 C 529.639771 153.75873 523.766319 155.736147 517.890625 157.769531 C 516.939176 158.098554 515.987727 158.427578 515.007446 158.766571 C 511.083629 160.127164 507.161751 161.493165 503.242188 162.865967 C 500.335609 163.882178 497.42589 164.888933 494.515625 165.894531 C 493.19066 166.363163 493.19066 166.363163 491.838928 166.841263 C 491.013264 167.125436 490.187599 167.409608 489.336914 167.702393 C 488.617637 167.953785 487.898361 168.205177 487.157288 168.464188 C 484.708083 169.072504 482.514037 169.091474 480 169 C 480 169.66 480 170.32 480 171 C 479.337502 171.146953 478.675005 171.293906 477.992432 171.445312 C 469.403577 173.461958 461.177584 176.235983 452.86438 179.150452 C 439.891845 183.691589 426.880413 188.063432 413.75 192.125 C 397.296573 197.219659 380.927415 202.566882 364.5625 207.9375 C 363.272178 208.360785 361.981854 208.784064 360.691528 209.207336 C 354.837381 211.128284 348.983751 213.050804 343.131104 214.976318 C 342.117749 215.307678 341.104395 215.639037 340.060333 215.980438 C 337.952922 216.68253 335.852645 217.406283 333.758759 218.147736 C 332.188091 218.698311 332.188091 218.698311 330.585693 219.26001 C 329.190417 219.760576 329.190417 219.760576 327.766953 220.271255 C 324.688779 221.081968 322.170053 221.265433 319 221 C 314.495408 217.621556 312.910944 213.905302 311.5 208.625 C 311.083595 207.183141 310.66559 205.741744 310.246094 204.300781 C 310.039683 203.577134 309.833271 202.853486 309.620605 202.10791 C 308.698433 198.975716 307.627501 195.898621 306.5625 192.8125 C 304.66418 187.164267 302.977385 181.488424 301.375 175.75 C 298.672796 166.104054 295.705111 156.550718 292.6875 147 C 292.452075 146.254761 292.21665 145.509521 291.974091 144.741699 C 291.020653 141.724578 290.066835 138.707577 289.11232 135.690796 C 286.696542 128.051351 284.312601 120.402175 281.9375 112.75 C 281.567781 111.561484 281.198062 110.372969 280.817139 109.148438 C 275.359006 91.555283 275.359006 91.555283 276 86 C 278.808766 83.362678 281.654591 82.273895 285.304688 81.167969 C 286.352534 80.847314 287.400381 80.52666 288.47998 80.196289 C 289.600337 79.863389 290.720693 79.530488 291.875 79.1875 C 293.030161 78.837842 294.185322 78.488184 295.375488 78.12793 C 303.757094 75.611725 312.180055 73.271239 320.634277 71.012939 C 326.25301 69.505082 331.766328 67.820974 337.265625 65.917969 C 341.400698 64.529765 345.594609 63.371761 349.792969 62.191406 C 355.060734 60.708022 360.310298 59.162382 365.5625 57.625 C 373.346929 55.34914 381.137108 53.095528 388.9375 50.875 C 394.924038 49.170173 400.90552 47.451159 406.875 45.6875 C 414.993219 43.289186 423.12074 40.923069 431.25 38.5625 C 431.92707 38.365888 432.60414 38.169276 433.301727 37.966705 C 442.337246 35.343864 451.378644 32.742528 460.42749 30.166016 C 470.96631 27.161133 481.481746 24.075921 492 21 C 515.445211 14.147839 515.445211 14.147839 526.160156 11.101562 C 532.634867 9.244117 539.099158 7.350855 545.564453 5.460938 C 547.518944 4.889762 549.474156 4.321046 551.430176 3.755127 C 553.531163 3.137765 555.620966 2.482452 557.707031 1.816406 C 578.670138 -3.380853 601.092259 5.701892 619 16 Z" fill="#000000"/>
  <path d="M 251 244 C 272.78 244 294.56 244 317 244 C 320.56879 260.654354 324.118106 277.295655 327.444824 293.99707 C 327.849479 296.020912 328.254306 298.04472 328.659287 300.068497 C 329.737064 305.45682 330.812504 310.845607 331.887456 316.234494 C 333.019112 321.905451 334.153011 327.57596 335.286652 333.246521 C 337.423586 343.937359 339.558563 354.628588 341.692801 365.319965 C 344.126653 377.511744 346.562744 389.703075 348.999004 401.894373 C 354.00179 426.929092 359.001828 451.96436 364 477 C 365.269003 474.471983 366.536906 471.943424 367.804199 469.414551 C 368.159512 468.707001 368.514825 467.999452 368.880905 467.270462 C 372.090397 460.862304 375.13187 454.387243 378.125 447.875 C 378.968937 446.047929 379.812884 444.220862 380.657333 442.394028 C 381.237902 441.13794 381.818193 439.881724 382.398209 438.625381 C 384.913276 433.179454 387.450815 427.744168 389.993408 422.311035 C 391.125936 419.888643 392.256564 417.465492 393.383545 415.040527 C 396.444521 408.456597 399.526179 401.883652 402.647018 395.327835 C 404.338471 391.767684 406.017046 388.201544 407.693756 384.63443 C 408.518061 382.888433 409.347898 381.145036 410.183441 379.404388 C 411.354198 376.963629 412.505172 374.514414 413.652344 372.0625 C 414.006776 371.335655 414.361207 370.60881 414.726379 369.85994 C 416.740979 365.492135 417.441721 362.783741 416 358 C 414.999944 355.310479 414.999944 355.310479 413.691406 352.625 C 412.956157 351.053955 412.956157 351.053955 412.206055 349.451172 C 411.663682 348.312285 411.121309 347.173398 410.5625 346 C 409.984088 344.771773 409.406307 343.543248 408.829102 342.314453 C 407.23609 338.928681 405.633322 335.547611 404.028381 332.16748 C 402.6227 329.20478 401.221667 326.23989 399.820496 323.275055 C 394.099869 311.171217 388.361936 299.075572 382.616699 286.983398 C 380.673572 282.893313 378.733221 278.80192 376.794556 274.709717 C 376.068476 273.178456 375.341378 271.647677 374.613159 270.117432 C 373.597569 267.983161 372.585547 265.84723 371.574219 263.710938 C 371.285343 263.106115 370.996467 262.501293 370.698837 261.878143 C 367.918862 255.988473 365.515182 250.036437 363 244 C 381.81 244 400.62 244 420 244 C 424.191032 252.382065 428.235808 260.556235 431.804688 269.175781 C 432.214136 270.152422 432.623585 271.129063 433.045441 272.1353 C 434.326497 275.192493 435.601216 278.25227 436.875 281.3125 C 438.171064 284.418776 439.46852 287.524451 440.768829 290.628952 C 441.571686 292.546468 442.371964 294.465066 443.169403 296.384842 C 443.527128 297.240513 443.884853 298.096183 444.253418 298.977783 C 444.567617 299.732756 444.881816 300.487729 445.205536 301.265579 C 445.873331 302.989464 445.873331 302.989464 447 304 C 447.422226 303.005211 447.422226 303.005211 447.852982 301.990326 C 450.513766 295.722306 453.176389 289.45507 455.841046 283.188696 C 457.21071 279.967532 458.579677 276.746075 459.947021 273.523926 C 461.521169 269.814532 463.098399 266.106457 464.675781 262.398438 C 465.407201 260.673113 465.407201 260.673113 466.153397 258.912933 C 466.613647 257.832266 467.073898 256.751599 467.548096 255.638184 C 467.950026 254.692203 468.351957 253.746223 468.766067 252.771576 C 470.086553 249.805591 471.548053 246.903894 473 244 C 491.81 244 510.62 244 530 244 C 527.750152 250.749544 527.750152 250.749544 526.298584 253.781738 C 525.972542 254.467338 525.6465 255.152938 525.310577 255.859314 C 524.783658 256.953758 524.783658 256.953758 524.246094 258.070312 C 523.873545 258.851505 523.500995 259.632697 523.117157 260.437561 C 522.31357 262.1216 521.508402 263.804885 520.701813 265.487488 C 518.978745 269.08202 517.263361 272.680202 515.547348 276.278107 C 514.662965 278.132043 513.778165 279.985781 512.89296 281.839325 C 507.977059 292.133784 503.098076 302.445657 498.246338 312.770508 C 495.038487 319.592759 491.813945 326.404882 488.517563 333.184906 C 486.992548 336.324919 485.479058 339.470418 483.966644 342.616516 C 483.246278 344.106868 482.520332 345.594538 481.788483 347.079285 C 480.779591 349.127013 479.790301 351.183177 478.804688 353.242188 C 478.237339 354.40605 477.66999 355.569912 477.085449 356.769043 C 475.188247 362.416271 476.969128 366.432054 479.519531 371.578125 C 480.040876 372.642649 480.562222 373.707173 481.099365 374.803955 C 481.6647 375.94115 482.230034 377.078345 482.8125 378.25 C 484.011859 380.694643 485.205108 383.142253 486.398438 385.589844 C 486.854003 386.521738 486.854003 386.521738 487.318771 387.472458 C 490.281289 393.544727 493.122057 399.670752 495.9375 405.8125 C 496.928218 407.970129 497.919106 410.12768 498.910156 412.285156 C 499.411763 413.377153 499.913369 414.46915 500.430176 415.594238 C 502.934078 421.026498 505.463468 426.446801 507.995087 431.86618 C 508.869741 433.738742 509.743656 435.611647 510.617432 437.484619 C 513.4004 443.447846 516.189888 449.407901 518.993378 455.361511 C 520.306483 458.151099 521.616791 460.941998 522.926819 463.733032 C 523.555733 465.070857 524.18605 466.408024 524.81781 467.744507 C 525.691852 469.593685 526.560897 471.445223 527.429688 473.296875 C 527.927104 474.352295 528.424521 475.407715 528.937012 476.495117 C 530 479 530 479 530 481 C 511.52 481 493.04 481 474 481 C 454.01139 435.544419 454.01139 435.544419 447 419 C 442.515707 427.706047 438.481668 436.565662 434.625 445.5625 C 434.055907 446.88251 433.486569 448.202415 432.916992 449.522217 C 429.313153 457.884611 425.74881 466.263833 422.271973 474.679932 C 420.104625 479.895375 420.104625 479.895375 419 481 C 417.583211 481.095507 416.161688 481.121885 414.741684 481.120255 C 413.363908 481.122317 413.363908 481.122317 411.958298 481.12442 C 410.434845 481.119027 410.434845 481.119027 408.880615 481.113525 C 407.81733 481.113671 406.754045 481.113817 405.658539 481.113968 C 402.125203 481.113268 398.59192 481.105473 395.058594 481.097656 C 392.616216 481.095792 390.173839 481.094368 387.731461 481.093369 C 381.288655 481.089542 374.845873 481.07971 368.403076 481.068665 C 361.834476 481.058454 355.265872 481.053872 348.697266 481.048828 C 335.798168 481.038088 322.899085 481.021201 310 481 C 309.038822 476.074636 308.078575 471.149092 307.119141 466.223389 C 306.793542 464.552442 306.467701 462.881542 306.141602 461.210693 C 305.220918 456.492897 304.304599 451.7743 303.396118 447.054138 C 303.042423 445.219991 302.685037 443.386556 302.327148 441.553223 C 302.144424 440.593354 301.961699 439.633486 301.773438 438.644531 C 301.620522 437.850227 301.467607 437.055923 301.310059 436.237549 C 301 434 301 434 301 429 C 289.78 429 278.56 429 267 429 C 266.4225 432.320625 265.845 435.64125 265.25 439.0625 C 265.055835 440.174961 264.86167 441.287422 264.661621 442.433594 C 263.731305 447.765874 262.811882 453.099646 261.914062 458.4375 C 261.739717 459.464802 261.565371 460.492104 261.385742 461.550537 C 261.051869 463.519461 260.721636 465.489007 260.395508 467.459229 C 260.241787 468.360847 260.088066 469.262466 259.929688 470.191406 C 259.732219 471.370052 259.732219 471.370052 259.530762 472.57251 C 258.904252 475.437911 257.927526 478.217423 257 481 C 239.51 481 222.02 481 204 481 C 204 473.138232 204 473.138232 204.996094 468.808594 C 205.332539 467.303291 205.332539 467.303291 205.675781 465.767578 C 205.927148 464.668652 206.178516 463.569727 206.4375 462.4375 C 206.992263 459.936987 207.544022 457.436053 208.089844 454.933594 C 208.239123 454.249615 208.388403 453.565637 208.542206 452.860931 C 210.686623 442.93946 212.572521 432.965342 214.5 423 C 217.144588 409.350759 219.855973 395.729785 222.832031 382.148438 C 224.867361 372.792668 226.694322 363.402122 228.5 354 C 230.493717 343.619435 232.54605 333.262791 234.8125 322.9375 C 238.315519 306.965734 241.380729 290.90622 244.485596 274.853271 C 244.694958 273.775081 244.904319 272.696891 245.120026 271.586029 C 245.511588 269.568943 245.9013 267.551496 246.288666 265.5336 C 247.693601 258.302686 249.340634 251.190585 251 244 Z" fill="#F9EB1E"/>
  <path d="M 232 101 C 235.479141 106.892816 237.452924 113.068579 239.40625 119.597656 C 239.724054 120.636948 240.041859 121.676239 240.369293 122.747025 C 241.419257 126.183604 242.459786 129.622958 243.5 133.0625 C 245.003069 138.005359 246.511641 142.946523 248.023438 147.886719 C 248.219595 148.528604 248.415753 149.170489 248.617855 149.831825 C 251.616961 159.636337 254.721072 169.403443 257.893211 179.15328 C 258.597721 181.320215 259.29991 183.487886 260.001282 185.655838 C 260.463743 187.084931 260.926206 188.514024 261.388672 189.943115 C 261.615677 190.644766 261.842681 191.346416 262.076565 192.069329 C 263.428681 196.24315 264.796099 200.411588 266.173899 204.576995 C 266.825662 206.556846 267.469287 208.539127 268.109467 210.522751 C 268.891869 212.9463 269.687235 215.36572 270.498199 217.779861 C 272.587507 224.327612 273.672252 229.250135 272 236 C 269.231824 238.153215 266.342746 239.003817 263 240 C 261.87207 240.362227 260.744141 240.724453 259.582031 241.097656 C 256.933662 241.943476 254.277994 242.760641 251.617188 243.566406 C 245.425675 245.460297 239.304111 247.569339 233.182617 249.677002 C 228.796756 251.164138 224.619175 252.424496 220 253 C 220 250.03 220 247.06 220 244 C 171.82 244 123.64 244 74 244 C 74 252.58 74 261.16 74 270 C 72.233247 267.349871 71.404606 265.534454 70.462891 262.561523 C 70.174634 261.659683 69.886378 260.757843 69.589386 259.828674 C 69.281451 258.848806 68.973516 257.868937 68.65625 256.859375 C 68.330832 255.837128 68.005414 254.814882 67.670135 253.761658 C 66.609165 250.425775 65.554649 247.087887 64.5 243.75 C 63.772176 241.458816 63.043822 239.167801 62.314941 236.876953 C 60.869971 232.334545 59.426892 227.791544 57.985352 223.248047 C 55.669156 215.952651 53.332785 208.663879 50.981384 201.379761 C 50.382158 199.522189 49.78506 197.66393 49.187988 195.805664 C 47.525334 190.645304 45.840791 185.496772 44.0625 180.375 C 43.62865 179.117197 43.62865 179.117197 43.186035 177.833984 C 42.67489 176.363019 42.15493 174.895058 41.622559 173.431641 C 40.134261 169.156767 39.452009 165.512869 40 161 C 42.893337 157.368203 45.678002 156.135725 50.058594 154.78125 C 51.250332 154.406133 52.44207 154.031016 53.669922 153.644531 C 54.913223 153.266836 56.156523 152.889141 57.4375 152.5 C 58.645996 152.122305 59.854492 151.744609 61.099609 151.355469 C 64.010096 150.448183 66.92327 149.550894 69.838959 148.660522 C 79.366367 145.748469 88.88005 142.793834 98.385269 139.810226 C 100.53209 139.136369 102.679053 138.462969 104.82605 137.789673 C 109.384155 136.36017 113.942091 134.930128 118.5 133.5 C 123.792091 131.839508 129.084256 130.179253 134.376602 128.519577 C 136.466286 127.864126 138.55584 127.208259 140.645386 126.552368 C 146.696957 124.653928 152.751174 122.765066 158.814453 120.904297 C 164.366693 119.199727 169.90506 117.455148 175.4375 115.6875 C 176.3649 115.391902 177.2923 115.096304 178.247803 114.791748 C 181.165399 113.861781 184.082734 112.931001 187 112 C 209.837817 104.711658 209.837817 104.711658 219.636719 101.726562 C 224.380519 100.268138 227.086051 99.534436 232 101 Z" fill="#000000"/>
  <path d="M 38.007812 365.699219 C 47.430009 371.851359 50.678307 392.672303 53.800537 402.894043 C 55.8188 409.45486 57.917012 415.987644 60.043131 422.514214 C 60.71041 424.562796 61.376323 426.611819 62.041916 428.66095 C 63.005488 431.627339 63.969426 434.593609 64.933655 437.559784 C 73.579134 464.159791 82.152881 490.781763 90.625 517.4375 C 90.957282 518.482636 90.957282 518.482636 91.296276 519.548885 C 95.563774 532.971733 99.827386 546.395673 104.015625 559.843506 C 105.635957 565.039257 107.284461 570.226062 108.935547 575.412109 C 109.412228 576.91588 109.88532 578.420795 110.354248 579.927002 C 110.945228 581.824171 111.55004 583.717017 112.15625 585.609375 C 115.154959 597.659744 112.3903 610.722796 110.375977 622.737305 C 108.792888 632.26462 107.604927 641.85959 106.375 651.4375 C 106.239648 652.469072 106.104297 653.500645 105.964844 654.563477 C 104.917267 662.264474 104.917267 662.264474 105 670 C 106.455281 671.680074 106.455281 671.680074 108 673 C 101.849134 673.157715 96.362147 672.761974 90.375 671.375 C 89.598662 671.196787 88.822324 671.018574 88.022461 670.834961 C 69.936409 666.466813 54.45786 657.514344 40 646 C 39.345156 645.499844 38.690312 644.999687 38.015625 644.484375 C 32.501822 640.08345 28.307602 634.544734 24 629 C 23.316797 628.144063 22.633594 627.288125 21.929688 626.40625 C 14.147682 616.274384 8.793517 604.967878 4.625 592.9375 C 4.386362 592.267107 4.147725 591.596714 3.901855 590.906006 C -0.481311 577.495036 -0.285111 563.334007 -0.227051 549.396729 C -0.226485 547.473358 -0.226806 545.549987 -0.227936 543.626617 C -0.228505 538.452012 -0.21682 533.277501 -0.202788 528.102918 C -0.190209 522.677743 -0.189104 517.252565 -0.186737 511.827377 C -0.180543 501.574934 -0.164161 491.322533 -0.144038 481.070108 C -0.121613 469.389215 -0.110669 457.708319 -0.100647 446.02741 C -0.079793 422.018249 -0.044658 398.009127 0 374 C 4.249468 372.685773 8.499664 371.373917 12.75 370.0625 C 13.956563 369.689316 15.163125 369.316133 16.40625 368.931641 C 17.566406 368.573926 18.726562 368.216211 19.921875 367.847656 C 20.990186 367.517737 22.058496 367.187817 23.15918 366.8479 C 32.931122 363.931266 32.931122 363.931266 38.007812 365.699219 Z" fill="#010101"/>
  <path d="M 673 167 C 673 215.84 673 264.68 673 315 C 663.833135 318.055622 654.876959 320.959623 645.5625 323.375 C 636.757064 325.701268 627.988154 328.119657 619.25 330.6875 C 618.25863 330.978748 617.267261 331.269995 616.24585 331.570068 C 614.360664 332.12489 612.475645 332.680281 610.59082 333.236328 C 606.938249 334.312962 603.283041 335.379574 599.625 336.4375 C 598.565391 336.745586 597.505781 337.053672 596.414062 337.371094 C 594 338 594 338 592 338 C 592 306.98 592 275.96 592 244 C 574.51 244 557.02 244 539 244 C 539 280.3 539 316.6 539 354 C 529.76 356.64 520.52 359.28 511 362 C 501.957459 364.759744 501.957459 364.759744 492.925781 367.554688 C 488.325718 368.952381 483.705499 370.0179 479 371 C 474.641551 363.207622 474.641551 363.207622 476 358 C 476.77311 356.172354 477.60726 354.369917 478.484375 352.589844 C 479.000161 351.533215 479.515947 350.476587 480.047363 349.387939 C 480.609233 348.249294 481.171104 347.110649 481.75 345.9375 C 482.954006 343.473046 484.153038 341.006186 485.351562 338.539062 C 485.658551 337.908152 485.965539 337.277242 486.28183 336.627213 C 489.309179 330.392313 492.224309 324.107223 495.125 317.8125 C 502.428718 301.993848 509.919732 286.26467 517.415436 270.536285 C 521.62554 261.698038 525.809096 252.847465 530 244 C 501.785 244.495 501.785 244.495 473 245 C 471.374492 248.828516 469.748984 252.657031 468.074219 256.601562 C 466.772158 259.665291 465.469716 262.728856 464.167015 265.792313 C 462.79468 269.019814 461.42301 272.247594 460.052979 275.476074 C 458.478831 279.185468 456.901601 282.893543 455.324219 286.601562 C 454.836606 287.751779 454.348993 288.901995 453.846603 290.087067 C 453.386353 291.167734 452.926102 292.248401 452.451904 293.361816 C 452.049974 294.307797 451.648043 295.253777 451.233933 296.228424 C 449.910723 299.200528 448.474854 302.100557 447 305 C 444.827374 302.827374 444.071268 301.176873 442.861084 298.370117 C 442.444027 297.408618 442.02697 296.447118 441.597275 295.456482 C 441.151385 294.413812 440.705495 293.371141 440.246094 292.296875 C 439.785178 291.226329 439.324263 290.155782 438.84938 289.052795 C 437.874437 286.78413 436.902007 284.514383 435.931885 282.243652 C 434.448037 278.774633 432.952086 275.311013 431.455078 271.847656 C 430.509674 269.643547 429.564989 267.43913 428.621094 265.234375 C 428.17318 264.199802 427.725266 263.165228 427.263779 262.099304 C 425.272554 257.413037 423.47121 253.127198 423 248 C 424.149602 247.63874 425.299204 247.27748 426.483643 246.905273 C 447.928697 240.158657 469.340057 233.356094 490.553955 225.90918 C 497.901461 223.339344 505.273933 221.028633 512.776367 218.942383 C 518.279356 217.333663 523.619254 215.285546 528.958984 213.205078 C 534.886161 211.020397 539.380064 210.380555 545.375 213.0625 C 551.418021 215.220722 556.557942 214.51154 562.3125 211.8125 C 567.471617 208.97379 569.957046 205.870124 572.8125 200.75 C 575 198 575 198 578.636719 197.328125 C 579.746602 197.219844 580.856484 197.111562 582 197 C 582.116433 200.895581 582.187329 204.790713 582.25 208.6875 C 582.283516 209.790293 582.317031 210.893086 582.351562 212.029297 C 582.450279 220.198066 582.450279 220.198066 580.234375 224.144531 C 578.203912 225.830668 576.451179 227.037037 574 228 C 575.414332 228.223634 576.831676 228.428265 578.25 228.625 C 579.038906 228.741016 579.827812 228.857031 580.640625 228.976562 C 583.440653 229.004377 584.660904 228.519174 587 227 C 590.619006 220.138661 590.52665 211.939563 590.6875 204.375 C 590.72166 203.27543 590.75582 202.175859 590.791016 201.042969 C 590.872608 198.362081 590.942041 195.681485 591 193 C 609.871827 186.671323 628.758867 180.38831 647.675873 174.195862 C 649.600064 173.565362 651.523751 172.933322 653.44693 172.299744 C 656.15203 171.409053 658.858938 170.524089 661.566406 169.640625 C 662.377327 169.37245 663.188248 169.104274 664.023743 168.827972 C 667.121816 167.822686 669.720905 167 673 167 Z" fill="#000000"/>
  <path d="M 111.411621 -0.113525 C 112.446376 -0.113671 113.48113 -0.113817 114.547241 -0.113968 C 117.955995 -0.113273 121.364693 -0.105501 124.773438 -0.097656 C 127.141408 -0.095791 129.509379 -0.094367 131.87735 -0.093369 C 138.101431 -0.089555 144.325489 -0.079736 150.549561 -0.068665 C 156.904131 -0.058424 163.258705 -0.053865 169.613281 -0.048828 C 182.075531 -0.038112 194.537764 -0.02105 207 0 C 209.100825 6.707384 211.200291 13.415191 213.298828 20.123291 C 214.012385 22.403662 214.726249 24.683936 215.44043 26.964111 C 216.468914 30.247955 217.496281 33.532147 218.523438 36.816406 C 218.841222 37.830219 219.159006 38.844031 219.48642 39.888565 C 224.308645 55.318959 224.308645 55.318959 224.4375 61.125 C 224.477461 62.117578 224.517422 63.110156 224.558594 64.132812 C 223.785778 68.099574 222.038157 69.383366 219 72 C 215.889404 73.431152 215.889404 73.431152 212.324219 74.585937 C 211.663161 74.804338 211.002104 75.022738 210.321014 75.247757 C 208.114461 75.971991 205.901419 76.673635 203.6875 77.375 C 202.105707 77.888057 200.524253 78.402164 198.943115 78.917236 C 193.636955 80.637616 188.319409 82.321108 183 84 C 182.032679 84.30585 181.065359 84.6117 180.068726 84.926819 C 165.942097 89.39151 151.797637 93.797975 137.645325 98.180481 C 133.782391 99.377214 129.920459 100.577166 126.058594 101.777344 C 121.296136 103.257029 116.533138 104.734956 111.769531 106.210937 C 105.6883 108.095596 99.61042 109.990732 93.535156 111.894531 C 91.065011 112.666963 88.593914 113.435472 86.121094 114.199219 C 79.900934 116.124797 73.701232 118.087997 67.535889 120.18335 C 60.006785 122.737144 52.441532 125.136197 44.8125 127.375 C 43.939563 127.637888 43.066626 127.900776 42.167236 128.171631 C 37.363529 129.555608 33.037078 130.651929 28 130 C 18.489022 123.635038 16.192139 109.068128 12.868164 98.580566 C 12.12011 96.234666 11.349291 93.896983 10.578125 91.558594 C 10.09494 90.044722 9.61312 88.530413 9.132813 87.015625 C 8.787681 85.985654 8.787681 85.985654 8.435577 84.934875 C 6.670963 79.218442 6.776728 74.473059 8.796875 68.737549 C 9.111406 68.149978 9.425938 67.562407 9.75 66.957031 C 10.106748 66.281885 10.463496 65.606738 10.831055 64.911133 C 11.409683 63.87231 11.409683 63.87231 12 62.8125 C 12.398643 62.07999 12.797285 61.34748 13.208008 60.592773 C 18.180484 51.626716 23.609549 43.171389 31 36 C 31.697383 35.244609 32.394766 34.489219 33.113281 33.710937 C 49.580744 16.219743 71.658565 5.722488 95 1 C 95.819063 0.828479 96.638127 0.656958 97.48201 0.48024 C 102.142465 -0.155958 106.713598 -0.130946 111.411621 -0.113525 Z" fill="#010101"/>
  <path d="M 74 244 C 122.18 244 170.36 244 220 244 C 220 258.52 220 273.04 220 288 C 205.48 288 190.96 288 176 288 C 176 351.69 176 415.38 176 481 C 158.84 481 141.68 481 124 481 C 124 417.31 124 353.62 124 288 C 107.5 288 91 288 74 288 C 74 273.48 74 258.96 74 244 Z" fill="#F9EB1F"/>
  <path d="M 247 0 C 354.58 0 462.16 0 573 0 C 573 0.33 573 0.66 573 1 C 571.896401 1.053899 571.896401 1.053899 570.770508 1.108887 C 563.38041 1.58062 556.799749 2.91363 549.75 5.125 C 547.644621 5.762017 545.53915 6.398727 543.433594 7.035156 C 542.368667 7.36145 541.30374 7.687744 540.206543 8.023926 C 535.088325 9.581916 529.950361 11.070836 524.8125 12.5625 C 523.815732 12.853345 522.818965 13.144189 521.791992 13.443848 C 514.511172 15.567717 507.220529 17.655755 499.92627 19.73291 C 488.284699 23.0525 476.669174 26.46198 465.05127 29.863281 C 452.191115 33.627858 439.31824 37.344021 426.431641 41.01709 C 415.921753 44.015567 405.428785 47.069969 394.939941 50.141113 C 391.954552 51.013277 388.967735 51.880381 385.980469 52.746094 C 374.966624 55.941166 363.98252 59.21589 353.020264 62.58374 C 346.622054 64.53781 340.203987 66.299441 333.726562 67.972656 C 329.314861 69.18888 324.977027 70.587741 320.625 72 C 311.852534 74.840753 303.006113 77.039642 294 79 C 293.853047 78.249766 293.706094 77.499531 293.554688 76.726562 C 291.900797 69.1795 289.528382 63.264261 285 57 C 284.520469 56.281992 284.040937 55.563984 283.546875 54.824219 C 281.790447 52.610942 280.511739 51.320828 278 50 C 274.284099 49.693144 270.821221 49.806005 267.109375 50.144531 C 264 50 264 50 262.436035 48.347168 C 260.827064 45.717339 259.877327 43.229906 258.914062 40.300781 C 258.357067 38.621334 258.357067 38.621334 257.788818 36.907959 C 257.404758 35.721458 257.020698 34.534956 256.625 33.3125 C 256.030541 31.500844 256.030541 31.500844 255.424072 29.652588 C 247 3.818651 247 3.818651 247 0 Z" fill="#2C2C2D"/>
  <path d="M 540 244 C 557.16 244 574.32 244 592 244 C 592 322.21 592 400.42 592 481 C 574.84 481 557.68 481 540 481 C 540 402.79 540 324.58 540 244 Z" fill="#F9EB1E"/>
  <path d="M 673 107 C 673 126.8 673 146.6 673 167 C 648.6875 174.9375 648.6875 174.9375 640.838867 177.499512 C 626.225153 182.272056 626.225153 182.272056 611.640625 187.132812 C 610.993863 187.350367 610.347101 187.567921 609.68074 187.792068 C 606.860568 188.741909 604.042617 189.697732 601.227295 190.661865 C 600.284749 190.980989 599.342202 191.300112 598.371094 191.628906 C 597.586619 191.897756 596.802144 192.166606 595.993896 192.443604 C 594 193 594 193 591 193 C 591.023566 194.011995 591.023566 194.011995 591.047607 195.044434 C 591.110661 198.154534 591.149211 201.2645 591.1875 204.375 C 591.212637 205.435898 591.237773 206.496797 591.263672 207.589844 C 591.331843 214.997754 591.327644 223.574484 585.875 229.1875 C 581.841036 230.327533 578.045433 230.111658 574 229 C 573.67 228.34 573.34 227.68 573 227 C 573.94875 226.566875 574.8975 226.13375 575.875 225.6875 C 579.200419 224.206978 579.200419 224.206978 581 221 C 581.367494 218.387105 581.367494 218.387105 581.414062 215.457031 C 581.452734 214.383887 581.491406 213.310742 581.53125 212.205078 C 581.562187 211.085527 581.593125 209.965977 581.625 208.8125 C 581.663672 207.681348 581.702344 206.550195 581.742188 205.384766 C 581.836525 202.590008 581.922117 199.795257 582 197 C 576.617305 198.56151 576.617305 198.56151 572.300781 201.902344 C 571.974648 202.573945 571.648516 203.245547 571.3125 203.9375 C 567.962164 210.014855 563.581426 212.806191 557 215 C 552.261506 215.621717 548.84454 215.370412 544.4375 213.4375 C 539.265634 211.27472 535.283009 212.156279 530.125 214.0625 C 527.08438 214.974686 524.94695 215.096914 521.804688 215.058594 C 520.904761 215.050134 520.004834 215.041675 519.077637 215.032959 C 518.392017 215.022083 517.706396 215.011206 517 215 C 516.995891 214.056809 516.991782 213.113618 516.987549 212.141846 C 516.960511 208.628063 516.911372 205.116013 516.847412 201.602783 C 516.824275 200.084988 516.809847 198.567034 516.804443 197.049072 C 516.795121 194.861136 516.754068 192.675693 516.707031 190.488281 C 516.691321 189.17384 516.67561 187.859399 516.659424 186.505127 C 515.842714 182.163956 514.451868 180.677994 511 178 C 507.5 177.083333 507.5 177.083333 504 178 C 500.624105 181.259718 499.208306 182.885898 498.340576 187.526855 C 498.317011 189.42782 498.317011 189.42782 498.292969 191.367188 C 498.277847 192.046775 498.262726 192.726363 498.247147 193.426544 C 498.204493 195.576373 498.195455 197.724792 498.1875 199.875 C 498.164338 201.341183 498.138969 202.807332 498.111328 204.273438 C 498.048701 207.848932 498.016188 211.423959 498 215 C 495.36 215 492.72 215 490 215 C 489.995891 214.056809 489.991782 213.113618 489.987549 212.141846 C 489.960511 208.628063 489.911372 205.116013 489.847412 201.602783 C 489.824275 200.084988 489.809847 198.567034 489.804443 197.049072 C 489.795121 194.861136 489.754068 192.675693 489.707031 190.488281 C 489.691321 189.17384 489.67561 187.859399 489.659424 186.505127 C 488.844708 182.174554 487.430809 180.682983 484 178 C 480.028627 177.255368 478.559003 177.627331 475.1875 179.875 C 471.517714 183.439935 471.826532 185.953312 471.683594 190.976562 C 471.662813 191.66181 471.642032 192.347058 471.620621 193.05307 C 471.555198 195.243611 471.496274 197.434272 471.4375 199.625 C 471.394308 201.109387 471.350693 202.593763 471.306641 204.078125 C 471.199524 207.718621 471.098236 211.359253 471 215 C 468.36 215 465.72 215 463 215 C 462.876415 210.212905 462.785672 205.426738 462.725342 200.638428 C 462.700194 199.009682 462.666071 197.38105 462.622803 195.752686 C 462.562155 193.411664 462.533795 191.072133 462.511719 188.730469 C 462.485912 188.002244 462.460106 187.274019 462.433517 186.523727 C 462.432373 184.46167 462.432373 184.46167 463 181 C 465.856368 178.58234 467.255722 178 471 178 C 471.2475 177.401875 471.495 176.80375 471.75 176.1875 C 473.191925 173.664131 474.525496 172.499699 477 171 C 477.99 171 478.98 171 480 171 C 480 170.34 480 169.68 480 169 C 480.66 168.804062 481.32 168.608125 482 168.40625 C 493.749434 164.856942 505.364576 160.903134 517 157 C 521.228561 155.581518 525.457821 154.165147 529.6875 152.75 C 531.100594 152.274819 531.100594 152.274819 532.542236 151.790039 C 537.477059 150.139179 542.42474 148.551668 547.401855 147.032715 C 553.932471 145.037051 560.409677 142.900499 566.882812 140.726562 C 569.354808 139.89971 571.826813 139.072888 574.298828 138.246094 C 575.589945 137.813698 576.881042 137.381243 578.172119 136.94873 C 584.876162 134.703203 591.582269 132.46386 598.289062 130.226562 C 599.293757 129.89139 599.293757 129.89139 600.318748 129.549446 C 614.756385 124.734758 629.221334 120.005596 643.699707 115.314941 C 644.512793 115.051459 645.32588 114.787977 646.163605 114.51651 C 647.707324 114.016741 649.251318 113.517819 650.795624 113.019867 C 656.100517 111.305999 661.376257 109.516021 666.634766 107.664062 C 669 107 669 107 673 107 Z" fill="#2D2D2D"/>
  <path d="M 352 481 C 367.18 481 382.36 481 398 481 C 405.215093 503.616542 405.215093 503.616542 407.977783 512.669434 C 409.073766 516.240343 410.185075 519.806313 411.300781 523.371094 C 411.517701 524.064715 411.734621 524.758336 411.958115 525.472977 C 412.638574 527.648704 413.319277 529.824355 414 532 C 415.476889 536.721522 416.953517 541.443125 418.429932 546.164795 C 418.853333 547.518668 419.276837 548.872508 419.700439 550.226318 C 422.199474 558.213465 424.68331 566.204989 427.139893 574.205322 C 428.184475 577.599401 429.246652 580.987542 430.3125 584.375 C 432.054712 589.925514 433.757165 595.487148 435.440918 601.055664 C 438.604352 611.515377 441.875543 621.935705 445.220947 632.338623 C 447.231761 638.592348 449.219421 644.850008 451.125 651.136719 C 451.776606 653.268984 452.446154 655.395782 453.125 657.519531 C 453.49625 658.688711 453.8675 659.857891 454.25 661.0625 C 454.752734 662.626777 454.752734 662.626777 455.265625 664.222656 C 456 667 456 667 456 671 C 441.15 671 426.3 671 411 671 C 409.2675 665.84375 407.535 660.6875 405.75 655.375 C 405.212139 653.779624 404.674277 652.184248 404.120117 650.540527 C 401.532425 642.827979 399.112734 635.09996 396.921387 627.263184 C 395.440947 622.020057 393.813125 616.824596 392.1875 611.625 C 391.815686 610.430925 391.443872 609.236851 391.060791 608.006592 C 389.71007 603.670162 388.355248 599.335017 387 595 C 386.719065 594.101342 386.43813 593.202684 386.148682 592.276794 C 384.571182 587.230955 382.993463 582.185184 381.415771 577.139404 C 381.090193 576.098114 380.764614 575.056823 380.429169 573.983978 C 379.767058 571.866467 379.104887 569.748974 378.442657 567.6315 C 374.209072 554.093612 369.996471 540.550022 365.839844 526.988281 C 363.269179 518.605556 360.661273 510.234314 358.055176 501.862549 C 352 482.388872 352 482.388872 352 481 Z" fill="#2C2C2D"/>
  <path d="M 207 0 C 220.2 0 233.4 0 247 0 C 249.777745 7.777687 252.449736 15.340946 254.824219 23.207031 C 256.384916 28.241706 258.029652 33.246596 259.6875 38.25 C 259.997358 39.192385 260.307217 40.134771 260.626465 41.105713 C 260.918599 41.983484 261.210732 42.861255 261.511719 43.765625 C 261.774285 44.557432 262.036851 45.349238 262.307373 46.165039 C 262.852091 47.989371 262.852091 47.989371 264 49 C 266.166667 48.833333 268.333333 48.666667 270.5 48.5 C 276.01519 48.477581 278.962875 48.906435 283 52.75 C 289.544166 60.515092 293.660289 68.808662 294 79 C 293.359336 79.253945 292.718672 79.507891 292.058594 79.769531 C 287.007772 81.779322 281.985194 83.832524 277 86 C 276.709907 91.569784 277.64729 95.772352 279.5 101 C 281.31084 106.109506 282.639785 110.484382 282 116 C 278.069916 121.086621 270.866532 123.765131 265 126 C 263.948125 126.4125 262.89625 126.825 261.8125 127.25 C 255.628806 128.466464 247.983417 129.355611 241.913086 127.289795 C 239.323398 125.543838 239.02905 124.076255 238.183594 121.097656 C 237.749502 119.63876 237.749502 119.63876 237.306641 118.150391 C 237.019824 117.131387 236.733008 116.112383 236.4375 115.0625 C 235.86148 113.050899 235.277175 111.041646 234.683594 109.035156 C 234.431501 108.141916 234.179409 107.248677 233.919678 106.328369 C 232.934327 103.833735 232.175351 102.5633 230 101 C 224.921285 101.249773 220.808646 102.360689 216 104 C 214.68 104 213.36 104 212 104 C 207.275446 94.424342 207.588321 85.394896 208 75 C 208.831445 74.673867 209.662891 74.347734 210.519531 74.011719 C 211.606211 73.574727 212.692891 73.137734 213.8125 72.6875 C 215.430918 72.043613 215.430918 72.043613 217.082031 71.386719 C 219.841773 70.075195 221.184119 69.3826 223 67 C 224.213907 59.18477 222.552871 51.926739 220.0625 44.5625 C 219.427006 42.579452 218.791594 40.596377 218.15625 38.613281 C 217.81207 37.560923 217.467891 36.508564 217.113281 35.424316 C 215.252387 29.700433 213.462373 23.954627 211.674042 18.207733 C 211.069691 16.27302 210.458388 14.340613 209.845947 12.408447 C 209.475261 11.226941 209.104575 10.045435 208.722656 8.828125 C 208.390159 7.775283 208.057661 6.722441 207.715088 5.637695 C 207 3 207 3 207 0 Z" fill="#2D2D2D"/>
  <path d="M 0 115 C 2.13517 118.202755 3.073539 120.954897 4.242188 124.617188 C 4.451831 125.270188 4.661475 125.923189 4.877472 126.595978 C 5.547708 128.68761 6.211357 130.781268 6.875 132.875 C 7.313389 134.244924 7.752187 135.614717 8.191406 136.984375 C 10.55644 144.375464 12.86068 151.783536 15.133301 159.203613 C 16.203141 162.65543 17.3384 166.077988 18.5 169.5 C 19.97297 173.83929 21.367914 178.189313 22.699219 182.574219 C 25.428304 191.487364 28.371988 200.329823 31.284607 209.184296 C 37.090885 226.85464 42.815997 244.549804 48.388031 262.295502 C 49.04074 264.37339 49.695192 266.450732 50.351471 268.527496 C 51.268437 271.432011 52.178268 274.338663 53.085938 277.246094 C 53.486441 278.510317 53.486441 278.510317 53.895035 279.800079 C 59.84489 299.000634 59.84489 299.000634 57.246094 306.042969 C 50.774295 316.207142 27.696612 318.958901 16.8125 321.8125 C 15.61762 322.12687 14.422739 322.44124 13.19165 322.765137 C 12.062351 323.055337 10.933052 323.345537 9.769531 323.644531 C 8.24743 324.036688 8.24743 324.036688 6.69458 324.436768 C 4 325 4 325 0 325 C 0 255.7 0 186.4 0 115 Z" fill="#000000"/>
  <path d="M 374 266 C 375.539551 268.66333 375.539551 268.66333 377.195312 272.269531 C 377.652268 273.252439 377.652268 273.252439 378.118454 274.255203 C 379.130179 276.436695 380.127372 278.62453 381.125 280.8125 C 381.833107 282.345408 382.542354 283.87779 383.252686 285.409668 C 384.745919 288.631267 386.234686 291.854881 387.721191 295.07959 C 391.007003 302.191965 394.372864 309.266297 397.731934 316.344269 C 399.8515 320.817999 401.956272 325.298709 404.06308 329.778458 C 406.20431 334.326344 408.371796 338.86071 410.550781 343.390625 C 411.576057 345.551829 412.600836 347.713269 413.625 349.875 C 414.092688 350.831001 414.560376 351.787002 415.042236 352.771973 C 415.659415 354.087541 415.659415 354.087541 416.289062 355.429688 C 416.825876 356.547063 416.825876 356.547063 417.373535 357.687012 C 419.310166 364.837302 414.477625 372.67449 411.6875 379.0625 C 411.220215 380.233613 410.75293 381.404727 410.271484 382.611328 C 407.519442 388.852376 405.431969 392.451879 399.007812 395.160156 C 397.01757 395.812439 395.01544 396.430318 393 397 C 391.74058 397.458227 390.483387 397.922721 389.230469 398.398438 C 377.629007 402.121628 377.629007 402.121628 373 400 C 367.334161 393.241343 365.818696 382.761675 363.535156 374.4375 C 362.18556 369.563531 360.644704 364.78123 359 360 C 356.855701 353.736681 354.956243 347.441701 353.1875 341.0625 C 350.515973 331.452046 347.390906 322.019778 344.194092 312.572754 C 341.817385 305.527681 339.592453 298.488681 337.65625 291.308594 C 337.076988 288.999303 337.076988 288.999303 336 287 C 335.761719 284.941406 335.761719 284.941406 335.6875 282.5625 C 335.631426 281.388809 335.631426 281.388809 335.574219 280.191406 C 336 278 336 278 337.689453 276.486328 C 340.215762 274.861204 342.540498 273.958629 345.394531 273.027344 C 346.432871 272.685098 347.471211 272.342852 348.541016 271.990234 C 349.620605 271.642832 350.700195 271.29543 351.8125 270.9375 C 352.880488 270.58623 353.948477 270.234961 355.048828 269.873047 C 358.027482 268.898583 361.012028 267.94544 364 267 C 364.731382 266.760396 365.462764 266.520791 366.216309 266.273926 C 369.421882 265.268867 370.717695 264.905898 374 266 Z" fill="#000000"/>
  <path d="M 247 0 C 310.69 0 374.38 0 440 0 C 437.549005 2.450995 435.882107 2.727741 432.539062 3.585938 C 430.870371 4.02293 430.870371 4.02293 429.167969 4.46875 C 427.998789 4.767812 426.829609 5.066875 425.625 5.375 C 417.971109 7.347382 410.454348 9.470661 402.974609 12.026855 C 397.856494 13.701249 392.647532 15.020415 387.4375 16.375 C 379.711611 18.417269 372.038302 20.530881 364.4375 23 C 354.05874 26.369069 343.551777 29.247008 333.036621 32.15625 C 325.00997 34.386521 317.005067 36.693697 309 39 C 307.994531 39.289072 306.989062 39.578145 305.953125 39.875977 C 302.780373 40.789315 299.608689 41.706251 296.4375 42.625 C 295.415757 42.920276 294.394014 43.215552 293.341309 43.519775 C 288.187851 45.021986 283.112405 46.619277 278.0625 48.4375 C 273.12007 50.121425 269.208426 50.661387 264 50 C 261.244736 47.143568 260.14012 44.029016 258.914062 40.300781 C 258.357067 38.621334 258.357067 38.621334 257.788818 36.907959 C 257.404758 35.721458 257.020698 34.534956 256.625 33.3125 C 256.030541 31.500844 256.030541 31.500844 255.424072 29.652588 C 247 3.818651 247 3.818651 247 0 Z" fill="#000000"/>
  <path d="M 477 172 C 476.195625 172.61875 475.39125 173.2375 474.5625 173.875 C 471.961255 175.74164 471.961255 175.74164 471 178 C 467.535 179.485 467.535 179.485 464 181 C 463.67 192.22 463.34 203.44 463 215 C 465.64 215 468.28 215 471 215 C 470.973816 214.092339 470.947632 213.184678 470.920654 212.249512 C 470.835112 208.861165 470.7726 205.473976 470.725342 202.084961 C 470.700295 200.622211 470.666246 199.159585 470.622803 197.697266 C 470.561706 195.586928 470.533696 193.478252 470.511719 191.367188 C 470.485535 190.099878 470.459351 188.832568 470.432373 187.526855 C 471.181444 182.872629 472.703266 181.306351 476 178 C 478.853244 176.573378 480.834545 176.689661 484 177 C 486.699907 178.799938 488.541886 180.083773 490 183 C 490.086399 185.408387 490.115678 187.787339 490.097656 190.195312 C 490.096241 190.902756 490.094826 191.6102 490.093369 192.339081 C 490.087766 194.601097 490.075213 196.863014 490.0625 199.125 C 490.057485 200.657551 490.052922 202.190103 490.048828 203.722656 C 490.037796 207.481809 490.02053 211.240888 490 215 C 492.64 215 495.28 215 498 215 C 497.968579 214.097576 497.937158 213.195151 497.904785 212.265381 C 497.802008 208.889981 497.727067 205.516262 497.67041 202.139893 C 497.64039 200.683895 497.599558 199.228076 497.547363 197.772705 C 497.070471 184.125168 497.070471 184.125168 500.800781 179.546875 C 503.206401 177.208236 504.080371 176.98449 507.5625 176.3125 C 511.457174 177.091435 513.213214 178.213214 516 181 C 517.479052 183.958105 517.121909 186.954715 517.097656 190.195312 C 517.096241 190.902756 517.094826 191.6102 517.093369 192.339081 C 517.087766 194.601097 517.075213 196.863014 517.0625 199.125 C 517.057485 200.657551 517.052922 202.190103 517.048828 203.722656 C 517.037796 207.481809 517.02053 211.240888 517 215 C 519.31 215 521.62 215 524 215 C 520.905352 217.063099 518.425817 217.892401 514.875 218.9375 C 507.609848 221.08917 500.463801 223.460092 493.342651 226.049606 C 490.491442 227.080318 487.63197 228.086877 484.77124 229.09082 C 483.296915 229.614257 481.826152 230.147836 480.359131 230.691406 C 465.57801 236.150877 465.57801 236.150877 458.01416 233.050049 C 457.349487 232.703533 456.684814 232.357017 456 232 C 455.26177 231.625769 454.52354 231.251538 453.762939 230.865967 C 446.055861 226.703238 440.57467 219.983161 437.660156 211.769531 C 435.469044 202.57723 436.63106 194.299524 441 186 C 441.379871 185.185151 441.759741 184.370303 442.151123 183.530762 C 444.62238 180.14808 446.792777 179.581526 450.75 178.289062 C 451.731782 177.963176 451.731782 177.963176 452.733398 177.630707 C 454.112447 177.177045 455.49439 176.7321 456.878906 176.29541 C 458.999515 175.625153 461.109041 174.926384 463.21875 174.222656 C 473.556825 170.852275 473.556825 170.852275 477 172 Z" fill="#2D2D2D"/>
  <path d="M 673 315 C 673 328.2 673 341.4 673 355 C 652.604582 360.665394 652.604582 360.665394 644 362.875 C 637.738871 364.492347 631.485355 366.132035 625.246094 367.832031 C 623.543564 368.295369 623.543564 368.295369 621.806641 368.768066 C 619.639096 369.359586 617.472358 369.954073 615.306641 370.552246 C 607.560697 372.664214 599.88449 374.310466 592 376 C 592 363.46 592 350.92 592 338 C 606.009931 333.612274 619.995034 329.389445 634.193115 325.661621 C 643.483677 323.198145 652.655756 320.40169 661.814453 317.488281 C 662.84377 317.163437 663.873086 316.838594 664.933594 316.503906 C 665.841658 316.213303 666.749722 315.9227 667.685303 315.623291 C 670 315 670 315 673 315 Z" fill="#2C2C2D"/>
  <path d="M 123 547 C 135.171457 546.287138 147.091437 549.340096 156.636719 557.160156 C 166.552312 566.512532 171.913158 576.750832 172.3125 590.3125 C 172.077622 603.010603 167.595855 613.818109 159.003906 623.152344 C 152.052944 629.561321 141.442237 635.21117 131.8125 635.25 C 130.884375 635.1675 129.95625 635.085 129 635 C 129.513855 629.213584 130.207487 623.503525 131.15625 617.772949 C 134.251899 598.547929 133.956211 581.568188 128 563 C 127.516074 561.421232 127.034292 559.841805 126.554688 558.261719 C 125.403571 554.496415 124.214046 550.745461 123 547 Z" fill="#181603"/>
  <path d="M 124 548 C 126.096215 554.444335 128.153682 560.899626 130.170898 567.369141 C 130.802434 569.373094 131.461442 571.368413 132.132812 573.359375 C 137.379398 590.576327 133.453155 609.724873 130.625 627.01709 C 129.252286 635.605525 128.153208 644.237992 126.984528 652.856018 C 126.675168 655.132139 126.363143 657.407883 126.050781 659.683594 C 125.959258 660.364687 125.867734 661.04578 125.773438 661.747513 C 125.341816 664.885311 124.859087 667.948529 124 671 C 120.854186 671.028885 117.708405 671.046759 114.5625 671.0625 C 113.664668 671.070879 112.766836 671.079258 111.841797 671.087891 C 110.560791 671.092725 110.560791 671.092725 109.253906 671.097656 C 108.463147 671.102893 107.672388 671.10813 106.857666 671.113525 C 105 671 105 671 104 670 C 104.328105 653.443318 107.06066 636.539707 109.792969 620.246094 C 110.632397 615.176281 111.350344 610.097385 112 605 C 112.251367 603.110879 112.251367 603.110879 112.507812 601.183594 C 113.24472 590.165645 109.67395 580.23988 106.202148 569.937744 C 105.795127 568.727234 105.388105 567.516724 104.96875 566.269531 C 104.403174 564.639149 104.403174 564.639149 103.826172 562.97583 C 103.040857 560.147163 102.829906 557.914211 103 555 C 110.060833 550.889026 115.662314 547.873147 124 548 Z" fill="#413F2B"/>
  <path d="M 352 481 C 367.18 481 382.36 481 398 481 C 401.576515 492.210998 401.576515 492.210998 403.179688 497.269531 C 404.216938 500.540984 405.260177 503.810117 406.320312 507.074219 C 408.134586 512.752222 409.533275 518.049258 410 524 C 399.886624 532.127228 389.947411 535.499967 376.972656 535.335938 C 373.622175 534.957302 371.048341 534.470578 368 533 C 366.53125 530.480469 366.53125 530.480469 365.5 527.1875 C 365.099102 525.937109 364.698203 524.686719 364.285156 523.398438 C 363.851722 521.933776 363.423715 520.467502 363 519 C 362.757495 518.162432 362.51499 517.324863 362.265137 516.461914 C 361.221042 512.833104 360.185643 509.202145 359.171143 505.564941 C 357.617181 500.018478 355.907796 494.605516 353.761719 489.253906 C 353 487 353 487 352 481 Z" fill="#2D2C2D"/>
  <path d="M 539 244 C 539.33 244 539.66 244 540 244 C 540 322.21 540 400.42 540 481 C 539.67 481 539.34 481 539 481 C 539 451.3 539 421.6 539 391 C 522.323791 395.16555 522.323791 395.16555 505.894531 399.984375 C 501.659053 401.211795 497.383462 401.63866 493 402 C 490.97779 397.76888 488.965929 393.533056 486.963623 389.29248 C 486.280597 387.849723 485.59473 386.408307 484.906006 384.968262 C 483.918166 382.90155 482.940544 380.830277 481.964844 378.757812 C 481.65345 378.111922 481.342055 377.466031 481.021225 376.800568 C 480.28668 375.227362 479.635115 373.615909 479 372 C 480 370 480 370 481.967529 369.225586 C 482.827737 368.980986 483.687944 368.736387 484.574219 368.484375 C 486.02526 368.066235 486.02526 368.066235 487.505615 367.639648 C 488.555637 367.346064 489.605659 367.05248 490.6875 366.75 C 491.760081 366.443525 492.832661 366.137051 493.937744 365.821289 C 502.139028 363.489239 510.361771 361.231412 518.602295 359.041992 C 523.480489 357.736159 528.246636 356.284431 532.994385 354.55957 C 535 354 535 354 539 354 C 539 317.7 539 281.4 539 244 Z" fill="#2F2E2A"/>
  <path d="M 207 0 C 220.2 0 233.4 0 247 0 C 251.847358 13.572604 256.096634 27.151355 260 41 C 258.11668 41.038672 258.11668 41.038672 256.195312 41.078125 C 243.987438 41.445105 235.139555 42.902312 225 50 C 224.34 50 223.68 50 223 50 C 222.67 50.99 222.34 51.98 222 53 C 221.777959 52.128916 221.555918 51.257832 221.327148 50.360352 C 218.431035 39.22887 215.001016 28.303097 211.47998 17.355957 C 210.7383 15.045718 210.001756 12.733887 209.265625 10.421875 C 209.037562 9.718832 208.809498 9.01579 208.574524 8.291443 C 207.656763 5.40477 207 3.050252 207 0 Z" fill="#2C2C2D"/>
  <path d="M 561.511719 171.695312 C 567.340086 174.337506 570.342686 178.485455 573.8125 183.75 C 576.209066 190.309023 575.79805 195.985512 572.875 202.3125 C 569.136784 209.011887 564.393258 212.61912 557 215 C 550.712903 216.067399 545.85357 214.653167 540.304688 211.636719 C 536.072018 208.630806 533.302045 204.604091 531 200 C 530.351147 191.078268 530.313018 184.284871 536.3125 177.3125 C 537.199375 176.549375 538.08625 175.78625 539 175 C 539.804375 174.236875 540.60875 173.47375 541.4375 172.6875 C 547.653078 169.743279 554.901892 169.865532 561.511719 171.695312 Z" fill="#F2E41F"/>
  <path d="M 267 429 C 278.22 429 289.44 429 301 429 C 301.825 433.3725 302.65 437.745 303.5 442.25 C 303.761035 443.623174 304.02207 444.996348 304.291016 446.411133 C 304.494043 447.49749 304.69707 448.583848 304.90625 449.703125 C 305.115723 450.81333 305.325195 451.923535 305.541016 453.067383 C 306 456 306 456 306 460 C 301.077793 461.682327 296.152206 463.35423 291.223389 465.01709 C 289.551552 465.582685 287.880628 466.150983 286.210693 466.722168 C 268.418474 472.803795 268.418474 472.803795 259 474 C 259.662718 465.64975 261.064868 457.483692 262.583984 449.256348 C 263.004086 446.977837 263.416496 444.698024 263.828125 442.417969 C 264.0933 440.966064 264.358909 439.514238 264.625 438.0625 C 264.747944 437.382358 264.870889 436.702217 264.997559 436.001465 C 265.884664 431.230671 265.884664 431.230671 267 429 Z" fill="#2E2E2D"/>
  <path d="M 100 557 C 100.99 557.33 101.98 557.66 103 558 C 104.808811 561.827677 106.026619 565.880245 107.320801 569.907227 C 107.999125 571.997302 108.715221 574.071838 109.433594 576.148438 C 114.454604 591.181769 113.34867 604.813976 110.753906 620.210938 C 109.937721 625.120307 109.439041 630.044268 109 635 C 108.67 635 108.34 635 108 635 C 107.920078 634.24332 107.840156 633.486641 107.757812 632.707031 C 106.815587 629.341246 105.723173 628.632947 102.875 626.6875 C 95.65541 621.384717 90.353693 615.36039 87 607 C 86.644219 606.128594 86.288438 605.257187 85.921875 604.359375 C 83.072904 593.977531 83.64404 581.188377 88.433594 571.554688 C 91.729584 566.179183 95.481914 561.394865 100 557 Z" fill="#181603"/>
  <path d="M 251 40.8125 C 252.305176 40.832803 252.305176 40.832803 253.636719 40.853516 C 255.758086 40.888483 257.87913 40.942275 260 41 C 261.32 43.64 262.64 46.28 264 49 C 265.359316 48.843379 265.359316 48.843379 266.746094 48.683594 C 276.353219 48.043119 276.353219 48.043119 280.722656 50.582031 C 288.732838 58.207504 293.631803 67.954088 294 79 C 292.753367 79.508336 291.502506 80.006311 290.25 80.5 C 289.553906 80.778437 288.857813 81.056875 288.140625 81.34375 C 286 82 286 82 282 82 C 281.690625 80.081875 281.690625 80.081875 281.375 78.125 C 279.470507 69.726714 275.185633 62.94914 267.976562 58.183594 C 266.998164 57.597715 266.998164 57.597715 266 57 C 264.989375 56.38125 263.97875 55.7625 262.9375 55.125 C 255.729596 52.357828 245.970847 52.728885 238.9375 55.75 C 237.608037 56.469503 236.293109 57.217041 235 58 C 233.948125 58.556875 232.89625 59.11375 231.8125 59.6875 C 226.291419 64.227056 222.859307 70.128275 221 77 C 220.228044 85.461441 220.931487 93.073007 224 101 C 222.753367 101.508336 221.502506 102.006311 220.25 102.5 C 219.553906 102.778437 218.857812 103.056875 218.140625 103.34375 C 216 104 216 104 212 104 C 207.275446 94.424342 207.588321 85.394896 208 75 C 209.247168 74.510801 209.247168 74.510801 210.519531 74.011719 C 211.606211 73.574727 212.692891 73.137734 213.8125 72.6875 C 214.891445 72.258242 215.970391 71.828984 217.082031 71.386719 C 220.653158 69.844544 220.653158 69.844544 223 67 C 222.969118 64.996768 222.923688 62.990892 222.753906 60.994629 C 221.947751 51.277579 221.947751 51.277579 224.933594 47.652344 C 227.600591 46.065136 230.060657 44.99783 233 44 C 233.586523 43.740173 234.173047 43.480347 234.777344 43.212646 C 240.264274 40.856275 245.081126 40.635207 251 40.8125 Z" fill="#413F2B"/>
  <path d="M 128 560 C 136.505159 560.199057 143.495526 562.124258 150.042969 567.757812 C 156.691144 574.760368 159.202851 581.97706 159.5 591.5625 C 159.171638 602.091276 155.535046 608.760446 148 616 C 142.604549 620.184228 137.816255 622.137934 131 622 C 131.144375 620.955859 131.28875 619.911719 131.4375 618.835938 C 133.77103 600.88204 134.469292 584.127621 129.09375 566.675781 C 128 563 128 563 128 560 Z" fill="#000000"/>
  <path d="M 259.8125 66.0625 C 265.066985 69.256402 269.508836 73.886228 271 80 C 271.621609 86.319688 270.713917 90.778987 267 96 C 262.1576 100.971818 258.830561 103.159056 251.8125 103.3125 C 245.847875 103.259832 242.678309 102.682924 238 99 C 232.832252 93.552915 231.409427 88.224303 231.558594 80.855469 C 232.42373 75.258876 235.475254 71.323771 239.570312 67.554688 C 245.601029 63.388541 253.074554 64.184712 259.8125 66.0625 Z" fill="#413F2C"/>
  <path d="M 489 171 C 492.080421 172.620038 494.529987 174.559046 497 177 C 497.366094 176.566875 497.732188 176.13375 498.109375 175.6875 C 501.81692 171.874025 504.637787 170.492512 510 170.25 C 515.130261 170.513585 518.016107 171.657297 521.695312 175.199219 C 525.008905 179.77277 525.276712 184.21847 525.195312 189.707031 C 525.192483 190.432426 525.189653 191.157821 525.186737 191.905197 C 525.175598 194.207804 525.150506 196.510012 525.125 198.8125 C 525.114962 200.379552 525.105838 201.946609 525.097656 203.513672 C 525.075679 207.3426 525.041193 211.171233 525 215 C 522.36 215 519.72 215 517 215 C 516.995891 214.056809 516.991782 213.113618 516.987549 212.141846 C 516.960511 208.628063 516.911372 205.116013 516.847412 201.602783 C 516.824275 200.084988 516.809847 198.567034 516.804443 197.049072 C 516.795121 194.861136 516.754068 192.675693 516.707031 190.488281 C 516.691321 189.17384 516.67561 187.859399 516.659424 186.505127 C 515.842714 182.163956 514.451868 180.677994 511 178 C 507.5 177.083333 507.5 177.083333 504 178 C 500.624105 181.259718 499.208306 182.885898 498.340576 187.526855 C 498.31701 189.42782 498.31701 189.42782 498.292969 191.367188 C 498.277847 192.046775 498.262726 192.726363 498.247147 193.426544 C 498.204493 195.576373 498.195455 197.724792 498.1875 199.875 C 498.164338 201.341183 498.138969 202.807332 498.111328 204.273438 C 498.048701 207.848932 498.016188 211.423959 498 215 C 495.36 215 492.72 215 490 215 C 489.995891 214.056809 489.991782 213.113618 489.987549 212.141846 C 489.960511 208.628063 489.911372 205.116013 489.847412 201.602783 C 489.824275 200.084988 489.809847 198.567034 489.804443 197.049072 C 489.795121 194.861136 489.754068 192.675693 489.707031 190.488281 C 489.691321 189.17384 489.67561 187.859399 489.659424 186.505127 C 488.844708 182.174554 487.430809 180.682983 484 178 C 480.028627 177.255368 478.559003 177.627331 475.1875 179.875 C 471.517714 183.439935 471.826532 185.953312 471.683594 190.976562 C 471.662813 191.66181 471.642032 192.347058 471.620621 193.05307 C 471.555198 195.243611 471.496274 197.434272 471.4375 199.625 C 471.394308 201.109387 471.350693 202.593763 471.306641 204.078125 C 471.199524 207.718621 471.098236 211.359253 471 215 C 468.36 215 465.72 215 463 215 C 462.876415 210.212905 462.785672 205.426738 462.725342 200.638428 C 462.700194 199.009682 462.666071 197.38105 462.622803 195.752686 C 462.562155 193.411664 462.533795 191.072133 462.511719 188.730469 C 462.485912 188.002244 462.460106 187.274019 462.433517 186.523727 C 462.432373 184.46167 462.432373 184.46167 463 181 C 465.856368 178.58234 467.255722 178 471 178 C 471.2475 177.401875 471.495 176.80375 471.75 176.1875 C 475.533396 169.566557 482.168692 169.875971 489 171 Z" fill="#F2E41F"/>
  <path d="M 364 481 C 375.22 481 386.44 481 398 481 C 400.394308 489.380079 401.416968 494.655375 397.207031 502.242188 C 394.650559 505.965205 391.121888 508.305286 387 510 C 381.211428 510.643175 375.830898 510.85006 370.5 508.375 C 364.726234 502.889922 361.406021 498.547437 360.6875 490.5 C 361 487 361 487 364 481 Z" fill="#413F2B"/>
  <path d="M 472 182 C 472.33 182.66 472.66 183.32 473 184 C 473.9075 184.268125 474.815 184.53625 475.75 184.8125 C 480.94758 186.711616 483.668019 190.08955 486.3125 194.8125 C 488.575227 199.735087 489.013286 203.931679 487.304688 209.105469 C 484.546507 215.282403 480.291046 219.360319 474 222 C 467.763825 222.804331 462.523052 222.140559 457 219 C 452.168568 215.04701 449.571544 210.843791 448.644531 204.609375 C 448.277107 198.134767 449.828464 193.935177 454 189 C 457.185553 185.96984 458.675536 185.081116 463 184 C 463 194.23 463 204.46 463 215 C 465.64 215 468.28 215 471 215 C 470.992145 213.607087 470.992145 213.607087 470.984131 212.186035 C 470.967104 208.745762 470.954557 205.305533 470.945068 201.865234 C 470.940035 200.375318 470.933208 198.885407 470.924561 197.395508 C 470.912452 195.255847 470.906762 193.116251 470.902344 190.976562 C 470.894489 189.044177 470.894489 189.044177 470.886475 187.072754 C 471 184 471 184 472 182 Z" fill="#413F2C"/>
  <path d="M 338 481 C 342.62 481 347.24 481 352 481 C 354.540306 487.571662 356.740166 494.224151 358.875 500.9375 C 359.223611 502.033284 359.572222 503.129067 359.931396 504.258057 C 362.006701 510.808043 364.074379 517.36046 366.0625 523.9375 C 366.278257 524.634158 366.494014 525.330815 366.716309 526.048584 C 368.116804 530.766391 368.116804 530.766391 367 533 C 352.596631 526.33046 344.500839 519.299667 338.761719 504.261719 C 337.176027 499.553434 336.846454 495.342028 336.875 490.375 C 336.871133 489.694375 336.867266 489.01375 336.863281 488.3125 C 336.873279 483.253441 336.873279 483.253441 338 481 Z" fill="#181603"/>
  <path d="M 511 177 C 513.75329 178.795624 515.526275 180.052549 517 183 C 517.086399 185.408387 517.115678 187.787339 517.097656 190.195312 C 517.096241 190.902756 517.094826 191.6102 517.093369 192.339081 C 517.087766 194.601097 517.075213 196.863014 517.0625 199.125 C 517.057485 200.657551 517.052922 202.190103 517.048828 203.722656 C 517.037796 207.481809 517.02053 211.240888 517 215 C 519.31 215 521.62 215 524 215 C 520.905352 217.063099 518.425817 217.892401 514.875 218.9375 C 510.972556 220.101311 507.095919 221.286403 503.25 222.625 C 498.902108 224.101186 494.493021 225.079115 490 226 C 490.498787 225.388662 490.997573 224.777324 491.511475 224.147461 C 497.477303 216.014071 497.860368 208.95429 497.5625 199.25 C 497.141066 184.089038 497.141066 184.089038 500.804688 179.589844 C 504.004874 176.436526 506.560742 176.112148 511 177 Z" fill="#413F2B"/>
  <path d="M 444 182 C 443.570742 182.852715 443.570742 182.852715 443.132812 183.722656 C 442.758984 184.47418 442.385156 185.225703 442 186 C 441.646797 186.699961 441.293594 187.399922 440.929688 188.121094 C 437.048568 196.645183 436.402453 205.406913 439.5625 214.3125 C 443.487934 222.767281 449.432809 228.388914 458 232 C 460.669459 232.846955 463.247076 233.449415 466 234 C 462.688478 236.207681 459.353249 237.461667 455.625 238.75 C 454.965 238.996211 454.305 239.242422 453.625 239.496094 C 450.568224 240.549525 448.474466 241.113817 445.296875 240.351562 C 435.62265 234.658906 429.126451 225.880943 425.824219 215.195312 C 424.808572 210.747827 424.704005 206.420835 424.75 201.875 C 424.742266 201.102852 424.734531 200.330703 424.726562 199.535156 C 424.741838 195.051925 424.827616 191.021604 427 187 C 430.152344 185.320312 430.152344 185.320312 433.9375 184.125 C 435.184023 183.715078 436.430547 183.305156 437.714844 182.882812 C 441 182 441 182 444 182 Z" fill="#413F2B"/>
  <path d="M 109 631 C 110.160156 631.307441 110.160156 631.307441 111.34375 631.621094 C 112.906094 632.025215 112.906094 632.025215 114.5 632.4375 C 116.031406 632.837754 116.031406 632.837754 117.59375 633.246094 C 121.398734 634.088252 125.128528 634.566563 129 635 C 128.550038 639.313416 128.08851 643.625521 127.625 647.9375 C 127.435508 649.756045 127.435508 649.756045 127.242188 651.611328 C 126.527442 658.204855 125.59747 664.561501 124 671 C 120.854186 671.028885 117.708405 671.046759 114.5625 671.0625 C 113.664668 671.070879 112.766836 671.079258 111.841797 671.087891 C 110.560791 671.092725 110.560791 671.092725 109.253906 671.097656 C 108.463147 671.102893 107.672388 671.10813 106.857666 671.113525 C 105 671 105 671 104 670 C 104.151282 662.366089 105.085989 654.710429 105.9375 647.125 C 106.012024 646.436641 106.086548 645.748281 106.16333 645.039062 C 106.729178 640.230222 107.749312 635.678304 109 631 Z" fill="#2C2C2D"/>
  <path d="M 558.164062 177.683594 C 562.929125 179.834118 565.852631 182.078945 568 187 C 568.852559 192.375179 568.946929 197.306487 565.9375 202 C 562.680026 205.815637 558.949972 207.54264 553.984375 208.3125 C 548.79542 208.629383 545.906812 207.285274 542 204 C 537.951713 199.514061 536.628947 196.176422 536.71875 190.058594 C 537.348467 185.449412 540.271203 182.642036 543.625 179.6875 C 548.240024 176.408404 552.782541 175.983655 558.164062 177.683594 Z" fill="#30302D"/>
  <path d="M 488 163 C 488.99 163.66 489.98 164.32 491 165 C 491 165.66 491 166.32 491 167 C 487.176794 168.422588 484.087187 169.240423 480 169 C 480 169.66 480 170.32 480 171 C 479.361431 171.138977 478.722861 171.277954 478.064941 171.421143 C 467.920904 173.783082 458.195803 177.254008 448.375 180.6875 C 445.766442 181.596864 443.157385 182.504702 440.547028 183.40889 C 438.934408 183.967703 437.322851 184.529593 435.712494 185.094894 C 430.224151 187 430.224151 187 428 187 C 430.34838 177.606481 437.417977 170.639521 445 165 C 458.528652 157.340562 473.821531 156.652124 488 163 Z" fill="#181603"/>
  <path d="M 421 475 C 425.553333 483.803111 425.467487 495.104751 423.09375 504.640625 C 420.103477 512.116308 415.752902 518.400282 410 524 C 409.804062 523.279414 409.608125 522.558828 409.40625 521.816406 C 406.755087 512.297359 403.750906 502.912566 400.642578 493.533447 C 400.301621 492.488582 399.960664 491.443716 399.609375 490.367188 C 399.299678 489.429878 398.98998 488.492568 398.670898 487.526855 C 398 485 398 485 398 481 C 408.395 480.505 408.395 480.505 419 480 C 419.66 478.35 420.32 476.7 421 475 Z" fill="#191703"/>
  <path d="M 510 221 C 492.619888 242.794109 492.619888 242.794109 480.984375 244.421875 C 479.075629 244.55179 477.162969 244.63689 475.25 244.664062 C 474.5075 244.774922 473.765 244.885781 473 245 C 472.34 245.99 471.68 246.98 471 248 C 471 247.34 471 246.68 471 246 C 470.321953 246.034805 469.643906 246.069609 468.945312 246.105469 C 461.442203 246.323703 454.77336 245.38668 448 242 C 448 241.34 448 240.68 448 240 C 464.015045 234.661652 480.03009 229.323303 496.045136 223.984955 C 496.739386 223.753538 497.433637 223.522121 498.148926 223.283691 C 498.80379 223.067552 499.458654 222.851412 500.133362 222.628723 C 501.893848 222.035754 503.640666 221.402642 505.38623 220.76709 C 508 220 508 220 510 221 Z" fill="#181603"/>
  <path d="M 405 510 C 405.66 510 406.32 510 407 510 C 407.509618 511.39235 408.007249 512.789091 408.5 514.1875 C 408.778437 514.964805 409.056875 515.742109 409.34375 516.542969 C 410.069584 519.260526 410.409922 521.207123 410 524 C 403.384008 531.183504 392.964909 534.475247 383.492188 535.308594 C 377.997738 535.414978 373.026273 535.445789 368 533 C 366.539062 530.285156 366.539062 530.285156 365.625 527.0625 C 365.307891 526.001602 364.990781 524.940703 364.664062 523.847656 C 364 521 364 521 364 518 C 364.83918 518.324844 364.83918 518.324844 365.695312 518.65625 C 375.684843 522.125283 386.127955 522.725259 395.871094 518.214844 C 399.534805 516.124176 403.067302 513.865397 405 510 Z" fill="#413F2B"/>
  <path d="M 277 101 C 277.66 101 278.32 101 279 101 C 283.081123 110.692668 283.081123 110.692668 282 116 C 277.507237 120.956302 271.143626 123.659571 265 126 C 263.948125 126.4125 262.89625 126.825 261.8125 127.25 C 255.371988 128.516986 248.140358 129.03332 241.714844 127.429688 C 238.944632 125.120126 238.622202 122.301509 237.75 118.875 C 237.577266 118.216289 237.404531 117.557578 237.226562 116.878906 C 236.803274 115.256301 236.399703 113.628575 236 112 C 236.983555 112.320977 237.967109 112.641953 238.980469 112.972656 C 247.242198 115.316836 257.74057 115.597044 265.625 112 C 269.76831 109.546538 272.705004 106.371617 275.625 102.574219 C 276.07875 102.054727 276.5325 101.535234 277 101 Z" fill="#413F2B"/>
  <path d="M 113 604 C 113.800508 604.524004 113.800508 604.524004 114.617188 605.058594 C 120.429012 608.60803 125.211734 609.844111 132 610 C 132.550488 618.665088 130.880811 626.603521 129 635 C 121.661867 635.564472 115.839119 633.553271 109 631 C 110.369906 606.630094 110.369906 606.630094 113 604 Z" fill="#2D2D2D"/>
  <path d="M 105 570 C 110.237747 573.491831 111.146691 580.720686 112.548828 586.654297 C 114.418005 596.3724 113.267027 606.446099 111 616 C 107.15021 615.466952 105.76399 613.971826 103.4375 610.9375 C 97.21126 602.413163 95.546056 594.624095 97 584 C 98.878062 578.853996 101.092841 573.907159 105 570 Z" fill="#000000"/>
  <path d="M 583 171 C 585.64 171 588.28 171 591 171 C 591.076562 177.367922 591.128813 183.735724 591.164795 190.104004 C 591.179808 192.266809 591.200224 194.429585 591.226318 196.592285 C 591.263034 199.715245 591.279802 202.8378 591.292969 205.960938 C 591.308453 206.915518 591.323936 207.870099 591.33989 208.853607 C 591.34161 215.841807 590.969985 223.942663 585.875 229.1875 C 581.841036 230.327533 578.045433 230.111658 574 229 C 573.67 228.34 573.34 227.68 573 227 C 573.928125 226.649375 574.85625 226.29875 575.8125 225.9375 C 579.700631 223.574126 580.838305 221.247914 582 217 C 582.439062 213.416583 582.487956 209.861398 582.511719 206.253906 C 582.52967 205.242793 582.547621 204.231679 582.566116 203.189926 C 582.62002 199.980826 582.654051 196.771872 582.6875 193.5625 C 582.720691 191.378235 582.755182 189.193989 582.791016 187.009766 C 582.875735 181.673309 582.944169 176.336833 583 171 Z" fill="#F2E51E"/>
  <path d="M 283 335 C 283.66 335 284.32 335 285 335 C 285.264781 336.649839 285.264781 336.649839 285.534912 338.333008 C 286.191045 342.418413 286.849453 346.50345 287.508545 350.588379 C 287.793345 352.355532 288.07753 354.122784 288.361084 355.890137 C 288.769048 358.432231 289.179231 360.973958 289.589844 363.515625 C 289.715925 364.30431 289.842007 365.092994 289.971909 365.905579 C 290.629173 370.017669 290.629173 370.017669 291.535416 374.079529 C 292.472312 377.952416 292.052055 382.043846 292 386 C 286.72 386 281.44 386 276 386 C 276 377 276 377 276.642578 373.144531 C 276.782723 372.284243 276.922869 371.423955 277.067261 370.537598 C 277.220377 369.638315 277.373494 368.739033 277.53125 367.8125 C 277.764308 366.397834 277.764308 366.397834 278.002075 364.95459 C 278.495389 361.968695 278.997547 358.984369 279.5 356 C 279.837827 353.964941 280.175072 351.929786 280.511719 349.894531 C 281.334426 344.928545 282.165063 339.963944 283 335 Z" fill="#30302C"/>
  <path d="M 295 79 C 295.404698 91.028514 293.715817 99.797742 287 110 C 285.705223 111.370805 284.381769 112.716929 283 114 C 274.777108 93.031627 274.777108 93.031627 276 86 C 279.12029 83.022912 282.541866 82.015319 286.625 80.8125 C 287.772266 80.46832 288.919531 80.124141 290.101562 79.769531 C 293 79 293 79 295 79 Z" fill="#181603"/>
  <path d="M 131 572 C 136.675877 572.960385 140.320844 575.180914 144.25 579.4375 C 147.655763 584.424509 148.883478 588.949853 148 595 C 146.08942 601.097838 142.386975 605.585887 137 609 C 135.673223 609.358543 134.340161 609.695276 133 610 C 133.010474 609.204165 133.020947 608.40833 133.031738 607.588379 C 133.07367 603.933952 133.099444 600.279576 133.125 596.625 C 133.141758 595.37332 133.158516 594.121641 133.175781 592.832031 C 133.21349 585.62974 132.808129 578.985861 131 572 Z" fill="#181703"/>
  <path d="M 232 101 C 236.665106 107.931015 240 117.654068 240 126 C 230.448038 124.905943 221.937255 118.408882 216 111 C 214.0625 107.5625 214.0625 107.5625 213 105 C 214.436716 104.352424 215.874404 103.707005 217.3125 103.0625 C 218.113008 102.702852 218.913516 102.343203 219.738281 101.972656 C 224.321238 100.001747 227.139771 99.550458 232 101 Z" fill="#191703"/>
  <path d="M 506 177 C 512.326191 177.364973 512.326191 177.364973 515.209961 180.082764 C 517.489479 183.797707 517.459771 186.149387 517.390625 190.488281 C 517.384965 191.19148 517.379305 191.894679 517.373474 192.619186 C 517.351198 194.851002 517.301024 197.081175 517.25 199.3125 C 517.229923 200.831357 517.211675 202.350239 517.195312 203.869141 C 517.151364 207.579955 517.082399 211.289817 517 215 C 519.31 215 521.62 215 524 215 C 521.375753 216.749498 519.442728 217.6539 516.5 218.625 C 515.339844 219.015586 515.339844 219.015586 514.15625 219.414062 C 512 220 512 220 509 220 C 509.144375 219.261367 509.28875 218.522734 509.4375 217.761719 C 511.77243 205.000678 512.403018 193.225677 505.707031 181.726562 C 505 180 505 180 506 177 Z" fill="#2D2D2D"/>
  <path d="M 379 448 C 372.07 462.85 372.07 462.85 365 478 C 364.34 477.67 363.68 477.34 363 477 C 361.965836 473.830052 361.445239 470.521053 360.8125 467.25 C 360.622363 466.3425 360.432227 465.435 360.236328 464.5 C 360.06166 463.618281 359.886992 462.736562 359.707031 461.828125 C 359.466903 460.620112 359.466903 460.620112 359.221924 459.387695 C 358.967354 456.648755 359.162793 454.621934 360 452 C 362.437923 450.656655 364.385356 449.806432 367 449 C 367.693516 448.782148 368.387031 448.564297 369.101562 448.339844 C 372.992852 447.239498 375.000444 447.000111 379 448 Z" fill="#44422B"/>
  <path d="M 127 560 C 129.205362 564.027182 130.456602 567.435457 131 572 C 130.443125 572.01418 129.88625 572.028359 129.3125 572.042969 C 120.74577 572.578389 115.981369 576.018631 110 582 C 108.68 577.71 107.36 573.42 106 569 C 110.524345 564.475655 110.524345 564.475655 114 562.8125 C 114.66 562.488945 115.32 562.165391 116 561.832031 C 119.749409 560.272218 122.946715 559.887409 127 560 Z" fill="#2C2C2D"/>
  <path d="M 111 618 C 111.617461 618.193359 112.234922 618.386719 112.871094 618.585938 C 118.543489 620.329962 124.19193 621.782179 130 623 C 130.142857 631.571429 130.142857 631.571429 129 635 C 121.661867 635.564472 115.839119 633.553271 109 631 C 109.14149 629.395444 109.288357 627.791362 109.4375 626.1875 C 109.518711 625.29418 109.599922 624.400859 109.683594 623.480469 C 110 621 110 621 111 618 Z" fill="#413F2B"/>
  <path d="M 398 481 C 402.29 481 406.58 481 411 481 C 413.098438 489.393754 412.973647 497.500757 409.070312 505.292969 C 408 507 408 507 406 509 C 405.331771 506.995312 404.664395 504.990337 404 502.984375 C 403.241019 500.71929 402.469118 498.460385 401.6875 496.203125 C 401.229155 494.864587 400.770821 493.526046 400.3125 492.1875 C 399.972792 491.218649 399.972792 491.218649 399.626221 490.230225 C 398.498981 486.917528 398 484.552723 398 481 Z" fill="#010100"/>
  <path d="M 221 52 C 223.362046 53.82179 223.957327 54.750362 224.46875 57.742188 C 224.552102 66.098233 224.552102 66.098233 222.125 70.0625 C 217.961576 72.643823 213.740539 73.867794 209 75 C 210.492632 65.745681 214.145396 58.483683 221 52 Z" fill="#191703"/>
  <path d="M 351 481 C 353 482 353 482 353.894531 484.378906 C 354.348926 485.954785 354.348926 485.954785 354.8125 487.5625 C 355.154102 488.729102 355.495703 489.895703 355.847656 491.097656 C 356.030864 491.72688 356.214072 492.356104 356.402832 493.004395 C 357.028637 495.095697 357.694135 497.170811 358.371094 499.246094 C 358.600144 499.953709 358.829194 500.661323 359.065186 501.390381 C 359.513582 502.771698 359.966695 504.151496 360.425049 505.529541 C 361.578646 509.127116 362.261846 512.217779 362 516 C 354.480507 510.423747 350.934163 504.187274 349 495 C 348.578285 489.913059 348.608027 485.634449 351 481 Z" fill="#020201"/>
  <path d="M 283 335 C 283.66 335 284.32 335 285 335 C 285.719293 339.285534 286.431097 343.572227 287.13623 347.860107 C 287.376729 349.316171 287.619208 350.771908 287.86377 352.227295 C 288.216586 354.329072 288.562069 356.43195 288.90625 358.535156 C 289.115723 359.797229 289.325195 361.059302 289.541016 362.359619 C 289.993662 365.949731 290.081445 369.385868 290 373 C 287.880231 370.880231 287.529457 369.958142 286.746094 367.15625 C 286.531465 366.404727 286.316836 365.653203 286.095703 364.878906 C 285.769893 363.701348 285.769893 363.701348 285.4375 362.5 C 285.000292 360.947467 284.56156 359.395362 284.121094 357.84375 C 283.929587 357.154746 283.738081 356.465742 283.540771 355.755859 C 283.027247 353.917712 283.027247 353.917712 282 352 C 281.682121 346.278186 281.785751 340.615901 283 335 Z" fill="#1A1904"/>
  <path d="M 496 168 C 497.94185 169.850751 499.365819 171.852219 501 174 C 499.35 175.65 497.7 177.3 496 179 C 494.144531 176.705078 494.144531 176.705078 492.289062 174.410156 C 489.956223 171.858171 487.68343 171.768343 484.375 171.4375 C 483.557734 171.353711 482.740469 171.269922 481.898438 171.183594 C 481.271953 171.123008 480.645469 171.062422 480 171 C 480 170.34 480 169.68 480 169 C 481.722916 168.43877 483.453737 167.901771 485.1875 167.375 C 486.15043 167.073359 487.113359 166.771719 488.105469 166.460938 C 491.515855 165.917853 493.004037 166.340075 496 168 Z" fill="#4C492A"/>
  <path d="M 79 288 C 87.25 288 95.5 288 104 288 C 101.040484 289.97301 98.539595 290.986553 95.1875 292.125 C 94.17043 292.478203 93.153359 292.831406 92.105469 293.195312 C 88.880187 294.031046 86.31434 294.323465 83 294 C 79 289.894737 79 289.894737 79 288 Z" fill="#010101"/>
  <path d="M 590 155 C 590.66 155.66 591.32 156.32 592 157 C 591.670285 160.297148 591.377316 161.622684 589 164 C 586.5 164.25 586.5 164.25 584 164 C 583.34 163.34 582.68 162.68 582 162 C 582.25 158.4375 582.25 158.4375 583 155 C 585.70607 153.646965 587.132837 154.21153 590 155 Z" fill="#EBDE20"/>
  <path d="M 371 462 C 370.371835 465.949497 369.135447 469.19892 367.4375 472.8125 C 366.982461 473.78832 366.527422 474.764141 366.058594 475.769531 C 365.709258 476.505586 365.359922 477.241641 365 478 C 364.34 477.67 363.68 477.34 363 477 C 362.585938 474.496094 362.585938 474.496094 362.375 471.4375 C 362.300234 470.425586 362.225469 469.413672 362.148438 468.371094 C 362.099453 467.588633 362.050469 466.806172 362 466 C 367.625 462 367.625 462 371 462 Z" fill="#36352D"/>
  <path d="M 260 42 C 265.773789 42.481149 269.958598 44.184672 275 47 C 275 47.66 275 48.32 275 49 C 271.556933 50.721534 267.765357 50.504351 264 50 C 261.373788 47.702065 260.605786 45.392402 260 42 Z" fill="#191704"/>
  <path d="M 283 83 C 282.608397 88.955074 281.628754 93.628198 279 99 C 275.987741 95.987741 276.056741 93.646847 275.6875 89.4375 C 276 86 276 86 277.8125 84.0625 C 280 83 280 83 283 83 Z" fill="#020201"/>
  <path d="M 466.25 171.9375 C 467.142031 171.946523 468.034063 171.955547 468.953125 171.964844 C 469.628594 171.976445 470.304062 171.988047 471 172 C 467.196128 174.535914 463.313713 175.746204 459 177.1875 C 457.770234 177.615791 457.770234 177.615791 456.515625 178.052734 C 455.332266 178.450088 455.332266 178.450088 454.125 178.855469 C 453.405703 179.099343 452.686406 179.343218 451.945312 179.594482 C 450 180 450 180 447 179 C 448.579346 178.014416 450.163652 177.036775 451.75 176.0625 C 452.631719 175.517227 453.513438 174.971953 454.421875 174.410156 C 458.483838 172.188386 461.653396 171.877018 466.25 171.9375 Z" fill="#010100"/>
  <path d="M 110 582 C 113.318604 586.977907 113.129775 591.391901 113.0625 597.25 C 113.057988 597.995078 113.053477 598.740156 113.048828 599.507812 C 113.037092 601.338576 113.019159 603.169299 113 605 C 112.333333 603.666667 111.666667 602.333333 111 601 C 110.632617 600.382539 110.265234 599.765078 109.886719 599.128906 C 108.713173 596.311363 108.771035 593.979498 108.8125 590.9375 C 108.818945 589.894648 108.825391 588.851797 108.832031 587.777344 C 109 585 109 585 110 582 Z" fill="#1A1806"/>
  <path d="M 225 100 C 228.3125 100.1875 228.3125 100.1875 232 101 C 234.309054 103.681482 234.952576 105.288636 235.1875 108.8125 C 235.125625 109.534375 235.06375 110.25625 235 111 C 230.837954 108.446017 227.770681 106.049456 225 102 C 225 101.34 225 100.68 225 100 Z" fill="#030302"/>
  <path d="M 562 204 C 560.308207 206.042197 559.362723 206.917933 556.738281 207.511719 C 555.937773 207.569727 555.137266 207.627734 554.3125 207.6875 C 553.504258 207.753242 552.696016 207.818984 551.863281 207.886719 C 551.248398 207.924102 550.633516 207.961484 550 208 C 551 206 551 206 553.75 204.875 C 556.701869 204.080266 558.972198 203.821894 562 204 Z" fill="#080804"/>
</svg>
