<?xml version="1.0" encoding="UTF-8" standalone="no"?>
<svg
   version="1.1"
   width="1080"
   height="1920"
   viewBox="0 0 1080 1920"
   id="svg49"
   sodipodi:docname="mt app-2.svg"
   inkscape:version="1.4.2 (ebf0e940, 2025-05-08)"
   inkscape:export-filename="mt1248x2778.svg"
   inkscape:export-xdpi="160"
   inkscape:export-ydpi="160"
   xmlns:inkscape="http://www.inkscape.org/namespaces/inkscape"
   xmlns:sodipodi="http://sodipodi.sourceforge.net/DTD/sodipodi-0.dtd"
   xmlns="http://www.w3.org/2000/svg"
   xmlns:svg="http://www.w3.org/2000/svg">
  <sodipodi:namedview
     id="namedview49"
     pagecolor="#ffffff"
     bordercolor="#000000"
     borderopacity="0.25"
     inkscape:showpageshadow="2"
     inkscape:pageopacity="0.0"
     inkscape:pagecheckerboard="0"
     inkscape:deskcolor="#d1d1d1"
     inkscape:zoom="0.38"
     inkscape:cx="1069.7368"
     inkscape:cy="1075"
     inkscape:window-width="2560"
     inkscape:window-height="1440"
     inkscape:window-x="0"
     inkscape:window-y="0"
     inkscape:window-maximized="0"
     inkscape:current-layer="g49">
    <inkscape:page
       x="0"
       y="0"
       width="1080"
       height="1920"
       id="page2"
       margin="0"
       bleed="0" />
  </sodipodi:namedview>
  <defs
     id="defs13">
    <clipPath
       id="clip_15">
      <path
         transform="matrix(1,0,0,-1,0,1920)"
         d="M 195.459,356.563 H 877.91299 V 1565.617 H 195.459 Z"
         id="path1" />
    </clipPath>
    <clipPath
       id="clip_16">
      <path
         transform="matrix(1,0,0,-1,0,1920)"
         d="M -328.566,171.832 H 1257.58 V 1765.13 H -328.566 Z"
         id="path2" />
    </clipPath>
    <clipPath
       id="clip_17">
      <path
         transform="matrix(1,0,0,-1,0,1920)"
         d="M -328.566,171.832 H 1257.58 V 1765.13 H -328.566 Z"
         id="path3" />
    </clipPath>
    <clipPath
       id="clip_18">
      <path
         transform="matrix(1,0,0,-1,0,1920)"
         d="m 1248.826,171.832 8.757,1584.586 -1577.392,8.717 -8.757,-1584.585 z"
         id="path4" />
    </clipPath>
    <clipPath
       id="clip_19">
      <path
         transform="matrix(1,0,0,-1,0,1920)"
         d="M 259.049,524.418 H 364.808 V 630.177 H 259.049 Z"
         id="path5" />
    </clipPath>
    <clipPath
       id="clip_20">
      <path
         transform="matrix(1,0,0,-1,0,1920)"
         d="m 364.227,524.418 0.581,105.178 -105.178,0.581 -0.581,-105.178 z"
         id="path6" />
    </clipPath>
    <clipPath
       id="clip_21">
      <path
         transform="matrix(1,0,0,-1,0,1920)"
         d="M 796.481,847.967 H 902.244 V 953.73 H 796.481 Z"
         id="path7" />
    </clipPath>
    <clipPath
       id="clip_22">
      <path
         transform="matrix(1,0,0,-1,0,1920)"
         d="m 901.663,847.967 0.581,105.181 -105.182,0.582 -0.581,-105.181 z"
         id="path8" />
    </clipPath>
    <clipPath
       id="clip_23">
      <path
         transform="matrix(1,0,0,-1,0,1920)"
         d="M 497.404,979.168 H 603.165 V 1084.93 H 497.404 Z"
         id="path9" />
    </clipPath>
    <clipPath
       id="clip_24">
      <path
         transform="matrix(1,0,0,-1,0,1920)"
         d="m 602.584,979.168 0.581,105.181 -105.18,0.582 -0.581,-105.181 z"
         id="path10" />
    </clipPath>
    <clipPath
       id="clip_25">
      <path
         transform="matrix(1,0,0,-1,0,1920)"
         d="M 176.972,810.255 H 282.729 V 916.011 H 176.972 Z"
         id="path11" />
    </clipPath>
    <clipPath
       id="clip_26">
      <path
         transform="matrix(1,0,0,-1,0,1920)"
         d="m 282.147,810.255 0.582,105.175 -105.176,0.581 -0.581,-105.175 z"
         id="path12" />
    </clipPath>
  </defs>
  <g
     id="g49"
     transform="translate(-13.157891,52.631579)">
    <path
       d="M 11.248474,1873.9633 H 1096.334 V -50.880158 H 11.248474 Z"
       id="path14"
       style="stroke-width:1.591" />
    <g
       clip-path="url(#clip_15)"
       id="g32"
       transform="matrix(1.5861201,0,0,1.5854947,-296.77296,-612.12095)">
      <g
         opacity="0.669998"
         id="g31">
        <g
           clip-path="url(#clip_16)"
           id="g30">
          <g
             opacity="0.279999"
             id="g17">
            <g
               clip-path="url(#clip_17)"
               id="g16">
              <g
                 clip-path="url(#clip_18)"
                 id="g15">
                <path
                   transform="matrix(1,0,0,-1,1068.7069,838.67568)"
                   d="m 0,0 c -48.195,-36.016 -96.354,-72.053 -144.558,-108.072 -24.976,-18.673 -49.692,-37.763 -75.092,-55.816 -15.305,-10.861 -24.671,-25.297 -32.601,-41.288 -5.479,-11.046 -12.005,-21.752 -16.696,-33.031 -4.36,-10.482 -9.241,-10.504 -17.319,-6.228 -35.41,18.709 -71.057,36.977 -106.652,55.388 -39.529,20.445 -78.855,41.263 -118.769,61.043 -10.152,5.02 -10.843,9.658 -5.203,20.17 55.958,104.393 111.416,209.018 167.045,313.566 6.64,12.485 14.046,24.661 19.928,37.428 5.141,11.197 10.047,12.329 18.824,5.631 28.752,-21.947 58.014,-43.268 87.026,-64.886 C -152.177,130.353 -80.314,76.77 -8.436,23.163 -4.571,20.297 -0.807,17.276 4.664,13.054 11.788,8.493 5.722,4.276 0,0 m -534.384,-209.821 c -16.035,-29.91 -32.197,-59.743 -48.031,-89.727 -3.503,-6.618 -7,-8.239 -12.944,-4.55 -20.446,12.687 -22.615,5.72 -8.301,32.12 12.614,23.243 24.771,46.704 37.342,69.971 8.167,15.129 8.322,15.064 22.661,7.924 2.895,-1.44 5.749,-2.932 7.187,-3.674 5.738,-3.907 4.286,-7.945 2.086,-12.064 m 91.484,-266.246 c -22.465,-42.039 -44.537,-84.254 -66.464,-126.525 -4.077,-7.847 -7.615,-10.151 -15.573,-5.884 -57.357,30.696 -115.016,60.922 -172.576,91.287 -7.856,4.147 -15.754,8.231 -22.281,11.602 -5.665,3.952 -4.002,7.943 -1.812,12.066 23.017,43.243 46.342,86.357 68.809,129.829 6.222,12.043 12.302,8.155 19.257,4.44 49.563,-26.428 99.108,-52.919 148.653,-79.392 12.467,-6.667 24.604,-13.978 37.557,-19.748 9.143,-4.057 9.088,-8.944 4.43,-17.675 m 157.221,801.846 c 26.698,49.802 53.203,99.704 79.855,149.525 1.201,2.271 3.227,4.181 4.873,6.254 -6.219,6.266 -12.447,12.545 -18.659,18.817 -1.672,-0.219 -3.422,-0.783 -5.01,-0.603 -24.8,2.793 -24.992,2.781 -37.577,-20.806 -20.789,-38.987 -41.384,-78.073 -62.21,-117.045 -7.517,-14.054 -8.636,-14.081 -20.314,-5.275 -29.185,21.982 -310.89,298.215 -339.905,320.423 -5.845,4.468 -10.298,3.679 -15.277,-1.855 -8.639,-9.624 -17.135,-19.373 -25.844,-28.95 -10.745,-11.841 -10.814,-13.721 1.131,-22.709 32.127,-24.145 316.292,-303.218 349.055,-326.531 9.694,-6.904 10.055,-12.776 4.172,-23.643 -27.806,-51.3 -54.803,-102.954 -82.226,-154.421 -36.585,-68.639 -73.393,-137.17 -109.862,-205.847 -4.227,-7.968 -8.537,-8.81 -15.203,-5.16 -13.478,7.349 -27.196,14.322 -40.829,21.394 -47.062,24.444 -435.468,255.783 -482.419,280.373 -7.424,3.886 -13.559,4.408 -20.085,-3.523 -19.426,-23.592 -17.546,-22.066 3.198,-33.824 1.41,-0.801 28.105,-26.971 29.549,-27.71 57.898,-29.91 431.843,-241.385 489.757,-271.282 6.412,-3.313 12.046,-6.128 6.631,-16.077 -21.373,-39.204 -42.266,-78.609 -63.11,-118.05 -3.324,-6.281 -6.67,-7.159 -12.118,-4.174 -10.639,5.797 -21.616,11.041 -32.302,16.749 -53.552,28.523 -513.356,261.76 -566.751,290.523 -5.338,2.874 -9.086,1.654 -13.579,-2.569 -9.213,-8.69 -15.991,-19.165 -23.503,-29.094 -11.809,-15.627 -10.992,-18.869 5.077,-27.431 63.186,-33.634 532.54,-272.202 595.852,-305.623 8.379,-4.434 10.51,-8.72 5.096,-18.55 -22.126,-40.301 -43.449,-80.971 -65.165,-121.472 -8.392,-15.661 -8.574,-15.584 -22.665,-8.119 -33.601,17.796 -539.858,300.722 -573.561,318.369 -13.154,6.863 -19.713,3.503 -31.301,-16.187 -7.073,-12.004 3.417,-14.532 9.846,-18.028 34.468,-18.74 541.863,-302.123 576.519,-320.507 13.34,-7.068 13.44,-8.194 5.383,-23.36 -33.366,-62.803 -66.587,-125.668 -99.85,-188.496 11.867,-11.972 23.734,-23.95 35.598,-35.927 -0.074,10.318 5.935,19.087 10.688,27.884 31.371,57.957 61.902,116.312 93.047,174.377 1.464,2.721 3.012,5.429 4.707,8.042 6.534,10.071 11.267,11.862 21.295,7.047 27.797,-13.358 54.737,-28.188 81.869,-42.683 35.688,-19.097 71.79,-37.505 107.207,-57.046 15.889,-8.762 16.962,-12.622 7.878,-30.011 -37.231,-71.288 -75.004,-142.336 -112.009,-213.714 -2.031,-3.94 -4.37,-7.744 -5.561,-11.963 -1.268,-4.491 -1.084,-8.662 3.062,-11.006 4.534,-2.558 8.932,-0.775 12.875,2.789 3.763,3.397 5.779,7.88 8.034,12.179 59.038,112.273 118.422,224.392 176.87,336.927 10.17,19.606 20.194,39.296 30.914,58.658 10.813,19.545 14.396,20.735 32.932,11.239 33.164,-16.989 176.243,-104.195 209.293,-121.387 26.23,-13.649 52.012,-28.045 78.332,-41.538 13.067,-6.713 16.872,-5.615 27.5,6.555 21.043,24.071 20.804,28.231 -4.975,42.075 -45.625,24.516 -202.093,117.677 -247.863,141.958 -17.553,9.299 -18.446,12.722 -8.594,31.659 38.557,74.074 77.203,148.122 116.22,221.992 3.645,6.892 8.486,12.341 14.686,16.978 72.764,54.487 145.698,108.736 218.436,163.285 12.528,9.388 18.63,9.086 25.994,-2.928 13.059,-21.329 25.378,-43.157 37.624,-65.009 19.15,-34.202 39.393,-67.718 58.571,-101.898 8.308,-14.818 12.985,-15.39 28.001,-4.844 1.09,0.762 2.18,1.533 3.248,2.338 20.645,15.64 21.354,18.106 9.906,38.527 -30.835,54.989 -62.989,109.13 -93.832,164.111 -6.926,12.371 -6.157,16.47 5.792,25.838 25.621,20.072 52.162,38.875 78.022,58.614 3.819,2.905 7.749,4.045 12.099,3.957 -6.779,6.84 -13.559,13.686 -20.348,20.525 -28.078,-21.138 -56.199,-42.24 -84.214,-63.467 -5.401,-4.092 -9.463,-4.241 -14.625,-0.38 -87.633,65.823 -175.418,131.463 -263.227,197.079 -26.058,19.471 -52.107,38.945 -78.503,57.988 -5.952,4.293 -7.508,8.426 -3.618,15.674"
                   fill="#58595b"
                   fill-rule="evenodd"
                   id="path15" />
              </g>
            </g>
          </g>
          <g
             opacity="0.100006"
             id="g20">
            <g
               clip-path="url(#clip_19)"
               id="g19">
              <g
                 clip-path="url(#clip_20)"
                 id="g18">
                <path
                   transform="matrix(1,0,0,-1,295.4562,1326.048)"
                   d="m 0,0 c 9.2,9.099 24.033,9.023 33.129,-0.177 9.098,-9.2 9.016,-24.036 -0.184,-33.135 -9.197,-9.095 -24.029,-9.014 -33.131,0.19 C -9.282,-23.925 -9.197,-9.096 0,0"
                   fill="#fff100"
                   id="path17" />
                <path
                   transform="matrix(1,0,0,-1,285.0851,1369.2446)"
                   d="M 0,0 C 14.638,-14.801 38.596,-14.937 53.391,-0.301 68.192,14.337 68.318,38.289 53.68,53.09 39.042,67.891 15.096,68.023 0.295,53.385 -14.503,38.753 -14.638,14.801 0,0 M 64.25,63.544 C 84.658,42.912 84.468,9.534 63.839,-10.865 43.213,-31.268 9.841,-31.083 -10.567,-10.451 c -20.396,20.626 -20.215,53.998 0.414,74.4 20.626,20.399 54.007,20.221 74.403,-0.405"
                   fill="#fff100"
                   id="path18" />
              </g>
            </g>
          </g>
          <g
             opacity="0.100006"
             id="g23">
            <g
               clip-path="url(#clip_21)"
               id="g22">
              <g
                 clip-path="url(#clip_22)"
                 id="g21">
                <path
                   transform="matrix(1,0,0,-1,832.8902,1002.4951)"
                   d="M 0,0 C 9.2,9.099 24.033,9.017 33.132,-0.18 42.23,-9.38 42.148,-24.216 32.948,-33.315 23.745,-42.417 8.91,-42.332 -0.189,-33.132 -9.285,-23.935 -9.203,-9.102 0,0"
                   fill="#fff100"
                   id="path20" />
                <path
                   transform="matrix(1,0,0,-1,822.5211,1045.696)"
                   d="M 0,0 C 14.638,-14.801 38.59,-14.94 53.394,-0.301 68.195,14.337 68.321,38.289 53.683,53.093 39.048,67.888 15.096,68.026 0.295,53.388 -14.506,38.746 -14.632,14.795 0,0 m 64.25,63.544 c 20.402,-20.626 20.218,-54.01 -0.408,-74.41 -20.629,-20.402 -54.013,-20.217 -74.415,0.412 -20.4,20.626 -20.212,54.004 0.417,74.406 20.629,20.402 54.007,20.221 74.406,-0.408"
                   fill="#fff100"
                   id="path21" />
              </g>
            </g>
          </g>
          <g
             opacity="0.100006"
             id="g26">
            <g
               clip-path="url(#clip_23)"
               id="g25">
              <g
                 clip-path="url(#clip_24)"
                 id="g24">
                <path
                   transform="matrix(1,0,0,-1,533.806,871.291)"
                   d="m 0,0 c 9.203,9.102 24.036,9.02 33.138,-0.183 9.099,-9.2 9.017,-24.033 -0.187,-33.135 -9.2,-9.099 -24.032,-9.017 -33.131,0.183 C -9.282,-23.934 -9.2,-9.099 0,0"
                   fill="#fff100"
                   id="path23" />
                <path
                   transform="matrix(1,0,0,-1,523.4437,914.496)"
                   d="M 0,0 C 14.638,-14.801 38.587,-14.94 53.391,-0.301 68.192,14.337 68.318,38.289 53.68,53.09 39.042,67.891 15.096,68.023 0.295,53.385 -14.509,38.746 -14.638,14.801 0,0 M 64.253,63.547 C 84.652,42.918 84.468,9.54 63.836,-10.865 43.21,-31.261 9.829,-31.083 -10.57,-10.454 c -20.403,20.629 -20.212,54.01 0.411,74.406 20.632,20.405 54.007,20.224 74.412,-0.405"
                   fill="#fff100"
                   id="path24" />
              </g>
            </g>
          </g>
          <g
             opacity="0.100006"
             id="g29">
            <g
               clip-path="url(#clip_25)"
               id="g28">
              <g
                 clip-path="url(#clip_26)"
                 id="g27">
                <path
                   transform="matrix(1,0,0,-1,203.0077,1083.4114)"
                   d="M 0,0 C 14.638,-14.801 38.587,-14.93 53.388,-0.292 68.189,14.343 68.321,38.295 53.683,53.093 39.045,67.894 15.096,68.026 0.295,53.391 -14.506,38.753 -14.638,14.801 0,0 M 64.247,63.541 C 84.649,42.915 84.468,9.54 63.839,-10.859 43.21,-31.261 9.832,-31.08 -10.567,-10.451 c -20.402,20.626 -20.215,54.004 0.414,74.406 20.626,20.399 54.001,20.215 74.4,-0.414"
                   fill="#fff100"
                   id="path26" />
              </g>
            </g>
          </g>
        </g>
      </g>
    </g>
  </g>
</svg>
